<svg width="1314" height="80" viewBox="0 0 1314 80" fill="none" xmlns="http://www.w3.org/2000/svg">
<g clip-path="url(#clip0_75_250)">
<path d="M0.261017 64.9131C0.0459728 64.8056 0.0101318 64.7697 0.0101318 64.3753C0.0101318 63.6582 0.0818134 63.0845 0.0818134 62.8693C0.0818134 62.7259 0.117653 62.6542 0.225175 62.6542C0.332697 62.6542 0.332697 62.69 0.332697 62.7976C0.332697 62.941 0.332698 63.1203 0.368538 63.3355C0.619423 64.3753 1.69464 64.7697 2.76986 64.7697C4.31101 64.7697 5.09951 63.8016 5.09951 62.9052C5.09951 61.937 4.63358 61.3634 3.23579 60.3594L2.51898 59.8215C0.798625 58.6024 0.404379 57.706 0.404379 56.7378C0.404379 55.2319 1.69464 54.192 3.7734 54.192C4.41853 54.192 4.88446 54.2637 5.27871 54.3354C5.60128 54.4072 5.7088 54.4072 5.85216 54.4072C5.99552 54.4072 6.03136 54.443 6.03136 54.5147C6.03136 54.5864 5.95968 55.0526 5.95968 56.0207C5.95968 56.2359 5.92384 56.3434 5.85216 56.3434C5.74464 56.3434 5.74464 56.2717 5.7088 56.1641C5.7088 55.9849 5.60127 55.6263 5.49375 55.447C5.38623 55.3036 4.95614 54.694 3.45084 54.694C2.33978 54.694 1.44376 55.3036 1.44376 56.3434C1.44376 57.1323 1.90969 57.6343 3.41499 58.71L3.91676 59.0327C5.81632 60.3594 6.28225 61.2199 6.28225 62.3673C6.28225 62.941 6.03136 64.0167 4.88446 64.698C4.20349 65.1283 3.30747 65.3076 2.4473 65.3076C1.69464 65.3076 0.941989 65.2 0.261017 64.9131ZM10.0814 61.0048C10.0814 62.3673 10.0814 63.4789 10.153 64.0885C10.1889 64.4829 10.2964 64.8056 10.7982 64.8773C11.0132 64.9131 11.3716 64.949 11.515 64.949C11.6225 64.949 11.6583 64.9849 11.6583 65.0207C11.6583 65.0924 11.5867 65.1283 11.4075 65.1283C10.5114 65.1283 9.50791 65.0924 9.40039 65.0924C9.29286 65.0924 8.28932 65.1283 7.8234 65.1283C7.64419 65.1283 7.57251 65.0924 7.57251 65.0207C7.57251 64.9849 7.60835 64.949 7.71587 64.949C7.85924 64.949 8.07428 64.9131 8.21764 64.8773C8.54021 64.8056 8.61189 64.5187 8.68357 64.0885C8.75525 63.4789 8.75525 62.3673 8.75525 61.0048V58.5307C8.75525 56.3076 8.75525 55.9131 8.71941 55.4829C8.68357 55.0167 8.54021 54.7657 8.1818 54.694C8.0026 54.6582 7.85924 54.6223 7.68003 54.6223L7.53667 54.5506C7.53667 54.4789 7.60835 54.443 7.78756 54.443C8.32517 54.443 9.36454 54.4789 9.43623 54.4789C9.50791 54.4789 10.5473 54.443 11.0132 54.443C11.1924 54.443 11.2641 54.4789 11.2641 54.5506L11.1207 54.6223C11.0132 54.6223 10.9057 54.6223 10.7265 54.6582C10.2964 54.7299 10.153 54.9809 10.1172 55.447C10.0814 55.9131 10.0814 56.3076 10.0814 58.4948V61.0048ZM26.0663 63.2637C26.138 63.7657 26.2455 64.5546 26.9623 64.7697C27.4282 64.9132 27.8583 64.9131 28.0017 64.9131L28.1451 64.9849C28.1451 65.0566 28.0017 65.1283 27.7866 65.1283C27.4282 65.1283 25.6721 65.0924 25.0628 65.0566C24.7044 65.0207 24.5968 64.9849 24.5968 64.9131L24.7044 64.8056C24.776 64.8056 24.8119 64.5546 24.776 64.3036L23.9875 57.0247L20.0092 64.3753C19.6867 64.9849 19.615 65.1283 19.4716 65.1283C19.3641 65.1283 19.2924 64.9849 18.9698 64.4829C18.5398 63.8016 17.142 61.3275 17.0703 61.2199C16.9269 60.9689 15.0991 57.5625 14.9198 57.204H14.8482L14.203 63.7657C14.203 63.9809 14.203 64.2319 14.203 64.4829C14.203 64.698 14.3822 64.8773 14.6331 64.9131C14.9198 64.9849 15.1707 64.9849 15.2424 64.9849L15.3858 65.0566C15.3858 65.1641 15.2783 65.2 15.0991 65.2C14.4898 65.2 13.7013 65.1642 13.5937 65.1642C13.4504 65.1642 12.6619 65.2 12.2318 65.2C12.0526 65.2 11.9451 65.1641 11.9451 65.0566L12.1243 64.9849C12.2676 64.9849 12.3752 64.9849 12.626 64.949C13.1637 64.8773 13.1995 64.3036 13.2712 63.7657L14.4539 54.5506C14.4898 54.4072 14.5256 54.2996 14.6331 54.2996C14.7406 54.2996 14.8123 54.3713 14.884 54.5147L19.8659 63.4072L24.6327 54.5147C24.7043 54.3713 24.776 54.2996 24.8836 54.2996C24.9911 54.2996 25.0628 54.4072 25.0628 54.694L26.0663 63.2637ZM27.3207 59.7498C27.3207 62.2956 29.1844 65.3076 33.6287 65.3076C37.5353 65.3076 40.1158 62.69 40.1158 59.5347C40.1158 56.2358 37.3919 54.2279 33.7362 54.2279C29.2561 54.2279 27.3207 57.455 27.3207 59.7498ZM28.8619 59.3554C28.8619 56.2717 30.9048 54.694 33.5928 54.694C36.1734 54.694 38.5388 56.5227 38.5388 59.8932C38.5388 64.0167 35.5282 64.7339 34.0588 64.7339C31.1557 64.7697 28.8619 62.6542 28.8619 59.3554ZM42.553 63.192C42.5888 64.3394 42.7322 64.7339 43.1981 64.8414C43.5207 64.9132 43.8791 64.9131 44.0225 64.9131L44.1658 64.9849C44.1658 65.0566 44.0583 65.0924 43.8791 65.0924C42.9473 65.0924 42.3021 65.0566 42.1588 65.0566C42.0154 65.0566 41.3344 65.0924 40.5818 65.0924C40.4026 65.0924 40.3309 65.0924 40.3309 64.9849L40.4742 64.9131C40.6176 64.9131 40.9043 64.9132 41.1552 64.8414C41.5495 64.7339 41.657 64.3395 41.657 63.0486V54.945C41.657 54.4072 41.6928 54.2279 41.8362 54.2279C41.9795 54.2279 42.2304 54.5506 42.4096 54.694C44.13 56.3076 45.8503 57.9211 47.5707 59.5347C49.1835 61.0406 50.9397 62.7618 51.4773 63.2279L51.2981 56.0566C51.2981 55.1243 51.1548 54.8374 50.653 54.7299C50.4021 54.694 50.1154 54.6582 49.8645 54.6582C49.757 54.6582 49.7211 54.6223 49.7211 54.5506C49.7211 54.4789 49.8645 54.443 50.0437 54.443C50.7605 54.443 51.549 54.4789 51.7282 54.4789C51.9074 54.4789 52.445 54.443 53.0902 54.443C53.2694 54.443 53.3769 54.443 53.3769 54.5506C53.3769 54.6223 53.3052 54.6582 53.1977 54.6582C53.126 54.6582 53.0185 54.6582 52.8034 54.694C52.2658 54.8016 52.1941 55.0884 52.1941 55.949L52.1583 64.2319C52.1583 65.1641 52.1225 65.2359 52.0149 65.2359C51.8716 65.2359 51.6924 65.0924 50.8322 64.3394C50.653 64.196 48.3233 62.1163 46.603 60.5028C44.7034 58.7458 42.8756 56.953 42.3738 56.451L42.553 63.192ZM60.9034 65.3076C63.3047 65.3076 64.595 64.0885 64.9534 63.7657C66.7454 64.9849 67.1397 65.0924 68.3224 65.0924H69.8994C70.0428 65.0924 70.1861 65.0566 70.1861 64.9849C70.1861 64.9132 70.1145 64.8773 69.9711 64.8773C69.3977 64.8773 68.5733 64.5904 68.0357 64.3394C67.5698 64.1243 66.853 63.7299 65.7777 62.941C66.4946 62.188 67.3906 60.7538 67.3906 59.6064C67.3906 59.4629 67.3547 59.3554 67.1039 59.3195C66.2078 59.2478 65.5269 59.212 65.1685 59.212C65.0251 59.212 64.9176 59.2478 64.9176 59.3195C64.9176 59.3912 65.0251 59.4271 65.0968 59.4271C65.3477 59.4271 65.6702 59.4629 65.8853 59.6422C66.1003 59.8215 66.2078 60.0725 66.2078 60.3235C66.2078 61.1841 65.8494 62.1163 65.3835 62.6542C64.8459 62.2598 62.8747 60.6462 62.3012 60.1084C60.6167 58.4948 59.7207 57.5984 59.7207 56.4868C59.7207 55.1601 60.7959 54.6223 61.7994 54.6223C62.5163 54.6223 63.0539 54.9092 63.4123 55.2319C63.8065 55.5904 63.914 56.0566 63.914 56.4151C63.914 56.6303 63.914 56.702 64.0216 56.702C64.0932 56.702 64.1291 56.6661 64.2008 56.451C64.2366 56.2358 64.3083 55.2677 64.3083 54.8374C64.3083 54.6582 64.3083 54.5864 64.0932 54.4789C63.6632 54.2637 62.9463 54.1203 62.122 54.1203C59.9357 54.1203 58.6455 55.5904 58.6455 56.702C58.6455 57.3474 58.8247 57.9211 59.434 58.6382C58.1795 59.2837 56.9609 60.3952 56.9609 62.0446C56.9609 63.4072 58.072 65.3076 60.9034 65.3076ZM61.4769 64.5546C59.649 64.5546 58.2154 63.2996 58.2154 61.5068C58.2154 60.3594 58.8247 59.6064 59.6848 59.1402C60.1508 59.7139 61.1901 60.7179 61.5844 61.1123C62.0145 61.5068 63.6273 62.8335 64.5233 63.5147C63.9857 64.0167 62.9822 64.5546 61.4769 64.5546ZM13.988 79.6144C13.7729 79.5068 13.7371 79.4709 13.7371 79.0765C13.7371 78.3594 13.8088 77.8215 13.8088 77.5705C13.8088 77.4271 13.8446 77.3554 13.9521 77.3554C14.0597 77.3554 14.0597 77.3913 14.0597 77.4988C14.0597 77.6423 14.0597 77.8215 14.0955 78.0367C14.3464 79.0765 15.4216 79.4709 16.4968 79.4709C18.038 79.4709 18.8265 78.5028 18.8265 77.6064C18.8265 76.6383 18.3606 76.0646 16.9628 75.0606L16.246 74.5227C14.5256 73.3036 14.1314 72.4072 14.1314 71.4391C14.1314 69.9331 15.4216 68.8932 17.5004 68.8932C18.1455 68.8932 18.6114 68.9649 19.0057 69.0367C19.3282 69.1084 19.4358 69.1084 19.5791 69.1084C19.7225 69.1084 19.7583 69.1442 19.7583 69.2159C19.7583 69.2877 19.6867 69.7538 19.6867 70.7219C19.6867 70.9371 19.6508 71.0446 19.5791 71.0446C19.4716 71.0446 19.4716 70.9729 19.4358 70.8654C19.4358 70.6861 19.3283 70.3275 19.2207 70.1482C19.1132 70.0048 18.6831 69.3952 17.1778 69.3952C16.0667 69.3952 15.1707 70.0048 15.1707 71.0446C15.1707 71.8335 15.6367 72.3355 17.142 73.4112L17.6079 73.7339C19.5075 75.0606 19.9734 75.9211 19.9734 77.0685C19.9734 77.6422 19.7225 78.7179 18.6114 79.3992C17.9305 79.8295 17.0344 80.0088 16.1743 80.0088C15.4216 80.0088 14.669 79.9012 13.988 79.6144ZM22.5181 78.467C20.9411 77.2478 20.5468 75.6343 20.5468 74.2717C20.5468 73.3395 20.9052 71.6542 22.3747 70.3992C23.3424 69.5387 24.8119 68.8932 27.3207 68.8932C27.9658 68.8932 28.8619 68.9291 29.6862 69.0725C30.2955 69.1801 30.8331 69.2518 31.3349 69.2877C31.5141 69.2877 31.5499 69.3594 31.5499 69.4311C31.5499 69.5387 31.5141 69.7179 31.4782 70.2199C31.4424 70.6861 31.4424 71.4749 31.4424 71.69C31.4424 71.9052 31.4066 71.9769 31.299 71.9769C31.1915 71.9769 31.1557 71.8693 31.1557 71.69C31.1557 71.1522 30.9048 70.5426 30.4747 70.2558C29.9012 69.8255 28.6468 69.4669 27.2132 69.4669C25.0628 69.4669 24.0592 70.0048 23.4858 70.5068C22.303 71.5108 22.0163 72.7657 22.0163 74.2C22.0163 76.8893 24.4176 79.3634 27.8942 79.3634C29.1128 79.3634 30.0804 79.2199 30.7256 78.6462C31.084 78.3235 31.2632 77.714 31.3349 77.463C31.3707 77.3195 31.4066 77.2478 31.5141 77.2478C31.5858 77.2478 31.6216 77.3554 31.6216 77.463C31.6216 77.5705 31.4424 78.7897 31.2632 79.2558C31.1557 79.5068 31.1198 79.5427 30.8331 79.6502C30.188 79.8654 28.9335 79.9729 27.8942 79.9729C25.457 80.0088 23.8083 79.4709 22.5181 78.467ZM43.449 75.706C43.449 77.0685 43.449 78.1801 43.5207 78.7897C43.5565 79.1841 43.6641 79.5068 44.1658 79.5785C44.3809 79.6144 44.7393 79.6502 44.8826 79.6502C44.9902 79.6502 45.026 79.6861 45.026 79.7219C45.026 79.7937 44.9543 79.8295 44.7751 79.8295C43.8791 79.8295 42.8756 79.7936 42.768 79.7936C42.6964 79.7936 41.657 79.8295 41.1911 79.8295C41.0119 79.8295 40.9402 79.7937 40.9402 79.7219C40.9402 79.6861 40.976 79.6502 41.0835 79.6502C41.2269 79.6502 41.4419 79.6144 41.5853 79.5785C41.9079 79.5068 41.9795 79.2199 42.0512 78.7897C42.1229 78.1801 42.1229 77.0685 42.1229 75.706V74.2359L42.0154 74.1642H35.0981L34.9906 74.2359V75.706C34.9906 77.0685 34.9906 78.1801 35.0623 78.7897C35.0981 79.1841 35.2057 79.5068 35.7074 79.5785C35.9225 79.6144 36.2809 79.6502 36.4242 79.6502C36.5318 79.6502 36.5676 79.6861 36.5676 79.7219C36.5676 79.7937 36.4959 79.8295 36.3167 79.8295C35.4207 79.8295 34.4172 79.7936 34.3096 79.7936C34.238 79.7936 33.1986 79.8295 32.7327 79.8295C32.5535 79.8295 32.4818 79.7937 32.4818 79.7219C32.4818 79.6861 32.5176 79.6502 32.6251 79.6502C32.7685 79.6502 32.9835 79.6144 33.1269 79.5785C33.4495 79.5068 33.5212 79.2199 33.5928 78.7897C33.6645 78.1801 33.6645 77.0685 33.6645 75.706V73.2319C33.6645 71.0088 33.6645 70.6144 33.6287 70.1841C33.5928 69.7179 33.4495 69.4669 32.9477 69.3952C32.8043 69.3594 32.5535 69.3594 32.4101 69.3594L32.2667 69.2877C32.2667 69.2159 32.3384 69.1801 32.5176 69.1801C33.2344 69.1801 34.2738 69.2159 34.3455 69.2159C34.4172 69.2159 35.4565 69.1801 35.9225 69.1801C36.1017 69.1801 36.1734 69.2159 36.1734 69.2877L36.03 69.3594C35.9225 69.3594 35.815 69.3594 35.6358 69.3952C35.2057 69.4669 35.0623 69.7179 35.0265 70.1841C34.9906 70.6502 34.9906 71.0446 34.9906 73.2319V73.5187L35.0981 73.5905H41.9795L42.0871 73.5187V73.2319C42.0871 71.0088 42.0871 70.6144 42.0512 70.1841C42.0154 69.7179 41.872 69.4669 41.3703 69.3952C41.1911 69.3594 41.0119 69.3594 40.8326 69.3594L40.6893 69.2877C40.6893 69.2159 40.761 69.1801 40.9402 69.1801C41.657 69.1801 42.6964 69.2159 42.768 69.2159C42.8397 69.2159 43.8791 69.1801 44.345 69.1801C44.5242 69.1801 44.5959 69.2159 44.5959 69.2877L44.4526 69.3594C44.345 69.3594 44.2375 69.3594 44.0583 69.3952C43.6282 69.4669 43.4849 69.7179 43.449 70.1841C43.4132 70.6502 43.4132 71.0446 43.4132 73.2319L43.449 75.706ZM46.4238 73.196C46.4238 71.0088 46.4238 70.5785 46.388 70.1482C46.3521 69.6821 46.2087 69.4311 45.707 69.3594C45.5636 69.3235 45.3127 69.3235 45.1694 69.3235L45.026 69.2518C45.026 69.1801 45.0977 69.1442 45.2769 69.1442C45.9937 69.1442 46.9972 69.1801 47.1406 69.1801C47.284 69.1801 48.2517 69.1442 48.7534 69.1442C48.9326 69.1442 49.0043 69.1801 49.0043 69.2518L48.861 69.3235C48.7534 69.3235 48.6459 69.3235 48.4667 69.3594C48.0366 69.4311 47.8933 69.6821 47.8574 70.1482C47.8216 70.6144 47.8216 71.0088 47.8216 73.196V75.1681C47.8216 77.212 48.3592 78.0725 49.0402 78.6462C49.8287 79.2917 50.5813 79.4351 51.4773 79.4351C52.4809 79.4351 53.4486 79.0407 54.022 78.4311C54.7747 77.6423 54.9539 76.4231 54.9539 74.953V73.196C54.9539 71.0088 54.9539 70.5785 54.918 70.1482C54.8822 69.6821 54.7388 69.4311 54.2371 69.3594C54.0937 69.3235 53.8428 69.3235 53.6994 69.3235L53.5561 69.2518C53.5561 69.1801 53.6278 69.1442 53.807 69.1442C54.5238 69.1442 55.4198 69.1801 55.5273 69.1801C55.6348 69.1801 56.3875 69.1442 56.8893 69.1442C57.0685 69.1442 57.1402 69.1801 57.1402 69.2518L56.9968 69.3235C56.8893 69.3235 56.7817 69.3235 56.6025 69.3594C56.1725 69.4311 56.0291 69.6821 55.9932 70.1482C55.9574 70.6144 55.9574 71.0088 55.9574 73.196V74.702C55.9574 76.2438 55.7782 77.9291 54.4521 78.9331C53.2694 79.8295 52.0508 79.9729 51.1189 79.9729C50.5813 79.9729 48.9326 79.9012 47.7857 78.9689C46.9972 78.2877 46.388 77.3195 46.388 75.2399L46.4238 73.196ZM57.9286 79.6144C57.7136 79.5068 57.6778 79.4709 57.6778 79.0765C57.6778 78.3594 57.7494 77.8215 57.7494 77.5705C57.7494 77.4271 57.7853 77.3554 57.8928 77.3554C58.0003 77.3554 58.0003 77.3913 58.0003 77.4988C58.0003 77.6423 58.0003 77.8215 58.0362 78.0367C58.2871 79.0765 59.3623 79.4709 60.4375 79.4709C62.0145 79.4709 62.7671 78.5028 62.7671 77.6064C62.7671 76.6383 62.3012 76.0646 60.9034 75.0606L60.1866 74.5227C58.4663 73.3036 58.072 72.4072 58.072 71.4391C58.072 69.9331 59.3623 68.8932 61.441 68.8932C62.0862 68.8932 62.5521 68.9649 62.9463 69.0367C63.2689 69.1084 63.3764 69.1084 63.5198 69.1084C63.6631 69.1084 63.6632 69.1442 63.6632 69.2159C63.6632 69.2877 63.5915 69.7538 63.5915 70.7219C63.5915 70.9371 63.5556 71.0446 63.4839 71.0446C63.3764 71.0446 63.3764 70.9729 63.3406 70.8654C63.3406 70.6861 63.2331 70.3275 63.1255 70.1482C63.018 70.0048 62.5879 69.3952 61.0826 69.3952C59.9716 69.3952 59.0755 70.0048 59.0755 71.0446C59.0755 71.8335 59.5415 72.3355 61.0468 73.4112L61.5127 73.7339C63.4123 75.0606 63.8782 75.9211 63.8782 77.0685C63.8782 77.6422 63.6273 78.7179 62.4804 79.3992C61.7636 79.8295 60.9034 80.0088 60.0432 80.0088C59.3623 80.0088 58.6096 79.9012 57.9286 79.6144ZM69.8277 75.706C69.8277 77.0685 69.8278 78.1801 69.8994 78.7897C69.9353 79.1841 70.0428 79.5068 70.5446 79.5785C70.7596 79.6144 71.118 79.6502 71.2614 79.6502C71.3689 79.6502 71.4047 79.6861 71.4047 79.7219C71.4047 79.7937 71.3331 79.8295 71.1539 79.8295C70.2578 79.8295 69.2543 79.7936 69.1468 79.7936C69.0751 79.7936 68.0357 79.8295 67.5698 79.8295C67.3906 79.8295 67.3189 79.7937 67.3189 79.7219C67.3189 79.6861 67.3547 79.6502 67.4623 79.6502C67.6056 79.6502 67.8207 79.6144 67.964 79.5785C68.2866 79.5068 68.3583 79.2199 68.43 78.7897C68.5016 78.1801 68.5016 77.0685 68.5016 75.706V69.7179L66.1003 69.7538C65.0968 69.7538 64.7025 69.8614 64.4516 70.2199C64.2724 70.4709 64.2366 70.5426 64.1649 70.6502C64.1291 70.7578 64.0574 70.7936 63.9857 70.7936L63.914 70.6502C63.914 70.5068 64.2366 69.2877 64.2724 69.1801C64.3083 69.1084 64.38 68.8932 64.4516 68.8932C64.5592 68.8932 64.7384 69.0367 65.1685 69.0725C65.5985 69.1084 66.0286 69.1442 66.4587 69.1442H72.5516C73.591 69.1442 74.0211 69.0008 74.1645 69.0008C74.2362 69.0008 74.2361 69.0725 74.2361 69.1801C74.2361 69.6104 74.2003 70.5785 74.2003 70.7219C74.2003 70.8654 74.1645 70.9012 74.0928 70.9012C74.0211 70.9012 73.9853 70.8653 73.9494 70.6502V70.5068C73.8777 70.0765 73.5193 69.7538 71.9423 69.7179L69.8994 69.6821L69.8277 75.706ZM76.4224 73.196C76.4224 71.0088 76.4224 70.5785 76.3866 70.1482C76.3507 69.6821 76.2074 69.4311 75.7056 69.3594C75.5622 69.3235 75.3114 69.3235 75.168 69.3235L75.0246 69.2518C75.0246 69.1801 75.0963 69.1442 75.2755 69.1442C75.9923 69.1442 77.0317 69.1801 77.1034 69.1801H80.8308C81.1534 69.1801 81.4043 69.1442 81.5476 69.1084L81.7627 69.0367L81.8344 69.1801C81.8344 69.2877 81.7627 69.4669 81.691 69.8614C81.691 70.0048 81.6552 70.6144 81.6193 70.7936L81.5118 70.9371C81.4043 70.9371 81.3684 70.8654 81.3684 70.7578C81.3684 70.6502 81.3684 70.4351 81.2609 70.2558C81.1534 70.0406 80.9742 69.8614 80.114 69.7897C79.8273 69.7538 78.0711 69.7538 77.8919 69.7538C77.8202 69.7538 77.7844 69.7896 77.7844 69.8972V73.8056C77.7844 73.9132 77.7844 73.949 77.8919 73.949C78.1069 73.949 80.114 73.949 80.4724 73.9132C80.8667 73.8773 81.0817 73.8414 81.2251 73.698C81.3326 73.5905 81.4043 73.5187 81.476 73.5187C81.5118 73.5187 81.5476 73.5546 81.5476 73.6263C81.5476 73.698 81.476 73.949 81.4043 74.4152C81.3684 74.702 81.3326 75.204 81.3326 75.3116C81.3326 75.4191 81.3326 75.5984 81.2251 75.5984L81.1176 75.455C81.1176 75.3116 81.1175 75.1681 81.0459 74.9889C80.9742 74.7737 80.8308 74.5586 80.1857 74.4869C79.7556 74.451 78.1428 74.4152 77.856 74.4152L77.7485 74.5227V75.7777C77.7485 76.2438 77.7485 77.8932 77.7485 78.1801C77.7844 79.1482 78.0353 79.3275 79.6481 79.3275C80.0782 79.3275 80.795 79.3275 81.2251 79.1841C81.6552 79.0407 81.8344 78.7538 81.9419 78.1801C81.9777 78.0367 82.0136 77.965 82.0853 77.965C82.1928 77.965 82.1928 78.0725 82.1928 78.1801C82.1928 78.2877 82.0494 79.2558 81.9777 79.5427C81.8702 79.9012 81.7268 79.9012 81.0817 79.9012C78.6445 79.9012 77.5335 79.8295 77.0676 79.8295C77.0317 79.8295 76.745 79.8295 76.4224 79.8295C76.0999 79.8295 75.7414 79.8654 75.4906 79.8654C75.3114 79.8654 75.2397 79.8295 75.2397 79.7578C75.2397 79.7219 75.2755 79.6861 75.383 79.6861C75.5264 79.6861 75.7415 79.6502 75.8848 79.6144C76.2074 79.5427 76.2791 79.2558 76.3508 78.8255C76.4224 78.216 76.4224 77.1044 76.4224 75.7419V73.196ZM84.5583 75.706C84.5583 77.0685 84.5583 78.1801 84.4866 78.7897C84.4149 79.1841 84.3432 79.5068 84.0207 79.5785C83.8773 79.6144 83.6981 79.6502 83.5189 79.6502C83.4114 79.6502 83.3755 79.6861 83.3755 79.7219C83.3755 79.7937 83.4472 79.8295 83.6264 79.8295C84.1282 79.8295 85.1317 79.7936 85.1675 79.7936C85.2392 79.7936 86.2786 79.8295 87.1746 79.8295C87.3538 79.8295 87.4255 79.7937 87.4255 79.7219C87.4255 79.6861 87.3897 79.6502 87.2822 79.6502C87.1388 79.6502 86.7804 79.6144 86.5653 79.5785C86.0636 79.5068 85.9919 79.2199 85.9202 78.7897C85.8485 78.1801 85.8485 77.0685 85.8485 75.706V75.3833L85.956 75.2757L87.9631 75.3116C88.0348 75.3116 88.1065 75.3474 88.1782 75.3833C88.5007 75.7419 89.2534 76.71 89.9344 77.463C90.8662 78.5387 91.4397 79.2199 92.1206 79.5427C92.5507 79.7219 92.945 79.7936 93.8768 79.7936H95.0237C95.3104 79.7936 95.418 79.7578 95.418 79.6861L95.2746 79.6144C95.1671 79.6144 94.952 79.6144 94.6295 79.5785C94.2352 79.5068 93.5184 79.3634 92.6582 78.5745C91.7264 77.714 90.6153 76.4231 89.2892 74.953C90.7587 73.7697 91.2605 72.7299 91.2605 71.69C91.2605 70.7219 90.5437 70.0048 90.1494 69.7538C89.2892 69.2159 88.214 69.1442 87.1746 69.1442C86.6729 69.1442 85.4543 69.1801 85.2751 69.1801C85.2034 69.1801 84.164 69.1442 83.4472 69.1442C83.268 69.1442 83.1963 69.1801 83.1963 69.2518L83.3397 69.3235C83.483 69.3235 83.7698 69.3235 83.8773 69.3594C84.4149 69.4669 84.5583 69.6821 84.5583 70.1482C84.5941 70.6144 84.5941 71.0088 84.5941 73.196L84.5583 75.706ZM85.8485 69.8255C85.8485 69.7538 85.8844 69.6821 85.9919 69.6462C86.1711 69.6104 86.6012 69.5745 87.0671 69.5745C88.8233 69.5745 89.8627 70.6502 89.8627 72.4072C89.8627 73.4829 89.4326 74.2359 88.8591 74.5944C88.5007 74.8096 88.0348 74.8454 87.6406 74.8454C86.9237 74.8454 86.1711 74.7379 85.9202 74.6303L85.8127 74.451L85.8485 69.8255ZM54.5238 20.5585C54.5238 20.5585 54.5955 20.9888 54.1295 21.2757C53.6636 21.5625 51.7282 22.6023 52.6959 20.8095C53.6994 18.9808 54.5238 18.7657 54.5238 18.7657C54.5238 18.7657 55.0256 18.192 55.7782 18.694C55.7782 18.694 56.2083 18.9808 55.1689 19.5187C55.2048 19.5545 54.5596 19.5545 54.5238 20.5585ZM55.9216 17.6541C56.9609 17.2238 57.0685 17.1521 57.2118 17.1521C57.3552 17.1521 57.7494 17.0446 58.3946 17.439C59.0397 17.7976 58.8605 18.0485 58.1795 17.8334C57.4986 17.6183 56.7817 17.7258 57.6419 18.3354C58.5021 18.945 57.8211 19.196 57.4269 18.7298C57.0326 18.2278 56.0291 18.2278 56.0291 18.2278C56.0291 18.2278 54.8822 18.0844 55.9216 17.6541ZM62.1937 46.5546C61.7636 46.3394 60.4016 46.1243 60.2941 46.0884C59.7207 45.8374 57.6778 44.6183 57.6778 44.6183C57.2835 43.937 58.1078 37.4828 58.072 37.2677C58.0362 37.0526 58.8605 34.8294 58.8605 34.8294C58.8605 34.8294 59.3623 33.3593 58.8247 33.2518C58.2871 33.1442 57.9645 32.3195 57.857 32.2478C57.7494 32.1761 57.5344 31.2438 57.5344 31.2438C56.6742 30.9211 56.2083 29.7378 56.2083 29.7378C56.2083 29.7378 56.0649 28.8055 55.7065 28.6621C55.3481 28.5545 55.4915 28.3753 55.4915 28.3753C57.8211 25.435 57.2118 25.937 57.4986 24.8613C57.7853 23.7856 56.1725 23.1761 56.4592 22.7816C56.7101 22.3872 56.9968 22.1004 56.2441 21.1681C55.4915 20.2358 56.7459 20.0565 56.7459 20.0565C58.8963 21.1322 60.0074 19.7338 60.5092 19.4828C61.0109 19.2318 62.0503 17.188 60.5092 16.3274C58.968 15.4669 58.2512 13.8892 58.2512 13.8892C57.7136 11.3792 56.5309 10.3035 56.5309 10.3035C54.7747 9.1561 54.3087 9.55053 54.1295 9.12025C53.9503 8.68997 56.3875 6.64616 56.3875 6.64616C58.1078 6.68201 58.7171 5.67802 58.7171 5.67802C57.4986 3.27563 56.3158 3.38319 56.3158 3.38319C53.6636 0.478806 52.8393 1.12423 52.8393 1.12423C52.445 1.08837 52.5525 1.91308 52.5525 1.91308C52.5525 1.91308 51.8716 1.98478 51.9074 2.41505C51.9433 2.84534 53.3052 3.49075 53.3052 3.49075C51.0472 3.49075 49.2194 4.60233 49.2194 4.60233C48.4667 4.2079 48.2158 4.35133 48.1083 5.03261C48.0008 5.71388 48.4667 6.71785 48.4667 6.71785L50.1512 6.75372L50.5096 6.35928C50.5096 5.60629 51.334 5.49874 51.334 5.49874C51.2981 4.81746 52.23 4.81745 52.23 4.81745C52.23 4.81745 53.1977 4.92502 53.3052 5.1043C53.4486 5.28358 53.6278 5.60632 54.1654 5.21189C54.703 4.81747 54.9897 5.31946 54.9897 5.31946L54.9539 6.00072C54.9539 6.00072 55.0256 5.85729 55.1331 6.35928C55.2406 6.86127 54.6313 6.78957 54.6313 6.78957L54.3087 7.07642L54.2012 7.36329L53.6994 7.39913C53.9862 7.7577 53.6994 8.22383 53.6994 8.22383C53.0185 9.69395 51.9791 8.36726 51.7999 7.93698C51.6207 7.54256 51.2981 7.47086 51.3698 7.65014C51.4415 7.82942 51.6924 8.5107 51.4773 9.62225C51.2623 10.7338 50.653 9.72981 50.653 9.72981C50.653 9.72981 50.2946 9.29955 50.0437 8.2597C49.7928 7.21986 49.3627 7.72186 49.3627 7.72186C49.3627 7.72186 49.8645 9.4071 50.3663 10.2677C50.8322 11.1282 51.6207 11.4151 51.6207 11.4151C51.6207 11.4151 51.764 11.5226 52.1583 11.2716C52.5525 11.0206 52.3733 11.3792 52.3733 11.3792C51.1189 13.5306 49.4702 13.2438 48.6101 14.0326C47.7499 14.8215 48.4667 15.0366 48.8251 15.0366C49.1835 15.0366 50.2229 14.3195 50.5096 14.176C50.7964 13.9968 51.0114 13.8892 50.6888 14.427C50.3663 14.9649 49.2552 15.3951 48.6459 15.682C48.0366 15.9689 47.9291 16.184 48.0008 16.435C48.0366 16.6501 47.7499 17.2597 47.6065 17.4031C47.4632 17.5107 47.0689 17.6183 47.0689 17.6183C46.3521 18.4071 47.2481 18.3713 47.5349 18.3354C47.8216 18.2995 48.4309 17.941 49.4702 17.3673C50.5096 16.7936 50.0795 17.4749 49.6853 17.941C49.3269 18.3713 48.0725 19.1242 47.3915 19.5187C46.7105 19.9131 46.9256 20.1641 46.9256 20.1641C48.395 20.0924 50.5096 18.443 52.1225 16.6143C53.7353 14.7856 53.9862 11.5585 53.9862 11.5585C54.022 11.4151 53.6994 9.4071 53.6994 9.4071H53.9145C53.9145 9.4071 54.8822 10.3752 54.7747 14.1043C54.6671 17.8334 52.8751 19.4111 52.1583 20.0924C51.4415 20.7737 51.5849 20.2717 51.5849 20.2717C52.5525 19.3035 53.3769 17.3673 53.5561 16.686C53.7353 16.0047 53.2335 16.4709 53.2335 16.4709C53.0543 17.7258 49.8287 20.451 49.8287 20.451C49.3627 20.8095 49.5061 20.4151 49.5061 20.4151C51.1189 18.443 48.5742 20.1282 48.5742 20.1282C47.9649 20.1999 48.0366 20.4868 48.0366 20.4868C49.3986 22.2438 54.0579 22.3514 53.9145 22.6023C53.7353 22.8533 53.0902 22.9968 52.7318 22.9968C52.3733 22.9968 51.7282 23.0326 51.0472 22.4948C50.3663 21.9569 50.4021 22.3872 50.4021 22.3872C50.2946 24.0366 54.7388 24.8972 54.9539 24.933C55.1689 24.9689 55.2406 25.1482 55.2406 25.1482C55.2406 25.1482 55.384 25.5784 54.2012 25.5784C53.0185 25.5784 50.5096 23.7856 49.6495 22.8892C48.7893 21.9928 48.861 22.6023 48.861 22.6023C49.0043 23.3195 51.7282 25.5426 52.3733 26.188C53.0185 26.8334 52.1583 26.6541 51.7999 26.6183C51.4415 26.5824 47.6065 22.0286 47.2481 21.8135C46.8897 21.5625 46.4955 21.1322 45.707 20.9171C44.9185 20.6661 45.4202 20.2358 45.4202 20.2358C44.8826 19.3394 44.7751 18.4788 44.7034 18.192C44.6318 17.9051 44.9185 17.0087 44.9185 17.0087C44.8468 16.435 45.922 15.3593 45.6353 15.0725C45.3844 14.7856 45.026 13.7099 45.026 13.7099C45.2411 11.1641 44.811 11.2358 44.811 11.4151C44.811 11.5944 44.0941 12.0963 44.0941 12.0963C44.0225 12.3473 42.4813 12.2039 42.4813 12.5266C42.4813 12.8135 42.7322 12.8135 42.9114 13.1362C43.0906 13.4589 41.9795 13.423 41.9795 13.423C40.5818 13.8533 41.6928 14.0326 41.6211 14.3195C41.5495 14.6063 40.7968 14.8215 40.2234 15.0007C39.6499 15.1442 38.288 14.929 38.503 15.3952C38.7181 15.8613 39.4707 15.7537 39.5065 16.1482C39.5424 16.5426 38.6464 16.3633 38.6464 16.3633C37.9654 15.8613 37.607 15.8254 36.9619 15.7537C36.3526 15.682 36.3167 16.1482 36.3167 16.1482C36.3167 16.1482 36.8902 16.184 37.0335 16.2557C37.2127 16.3274 37.6787 16.435 37.607 16.5784C37.4995 16.7218 37.4995 16.7219 37.2844 16.7219C37.0694 16.7219 36.2809 16.4709 36.03 16.4709C35.7791 16.4709 35.3132 16.5784 35.0981 16.7936C34.9189 17.0446 35.0623 16.937 35.4207 17.0804C35.7791 17.188 35.5999 17.3673 35.5999 17.3673C35.5999 17.3673 34.5247 18.1203 34.4172 18.1203C34.3096 18.1203 33.4136 19.0167 33.4136 19.0525C33.4136 19.0884 33.1986 19.3394 33.1986 19.4469C33.1986 19.5545 32.4459 20.3434 32.4459 20.3434C32.3384 20.2358 30.6539 21.6701 30.6539 21.6701L30.0805 21.3832C30.0805 21.3832 29.507 21.2398 29.6862 21.9211C29.8654 22.6023 31.1557 23.7139 31.1557 23.4629C31.1557 23.2119 32.3384 21.6701 32.1234 22.3872C31.9083 23.0685 32.9835 23.6063 32.8043 23.3195C32.6251 23.0326 33.0194 22.6382 33.0194 22.6382C33.0194 22.6382 33.6287 22.3155 33.6645 21.6701C33.7362 21.0246 34.2021 20.3434 34.453 19.5904C34.7039 18.8374 39.2557 17.5466 40.3667 17.2239C41.4419 16.9011 42.768 16.2199 42.9472 16.2916C43.1264 16.3633 43.0906 16.435 43.0906 16.435C43.0906 16.435 43.0906 17.4749 43.0548 17.7617C43.0189 18.0844 43.7357 19.3035 43.7357 19.3035C44.0225 19.4828 44.3809 20.0207 44.3809 20.0207C44.3809 20.0207 44.5242 20.4868 44.5601 20.6661C44.5601 20.8454 44.6676 21.2398 45.241 21.4549C45.8145 21.6701 45.707 21.9569 45.707 21.9569C45.7787 22.3513 44.8826 22.3513 44.9185 22.8533C44.9543 23.3553 45.8145 23.929 45.8145 23.929C48.0366 25.0047 47.0689 24.8254 47.0689 24.8254C44.6318 23.8932 44.9543 24.3235 44.9543 24.3235C45.3127 25.184 46.9614 25.4709 47.284 25.5784C47.6065 25.686 48.0366 25.5784 48.18 26.2239C48.3233 26.8693 48.5742 27.192 49.0043 27.6581C49.4344 28.1243 50.0437 28.3753 51.4415 29.0565C52.8751 29.7378 52.7317 30.1322 53.126 30.3832C53.5202 30.6342 53.7353 31.4948 54.022 32.9649C54.2729 34.435 55.1331 34.7577 55.2406 34.7577C55.3481 34.7577 55.4198 34.7219 55.7782 34.3992C56.1008 34.0765 56.0291 34.1123 56.28 34.2916C56.495 34.4709 55.7782 35.5824 55.7782 35.5824C54.5596 36.5147 53.8787 38.3793 53.807 38.5944C53.7353 38.8095 54.022 39.0605 54.022 39.0605C54.3446 39.1681 54.5238 38.9888 54.4879 39.2398C54.4521 39.4908 54.3087 39.6342 54.2729 39.6701C54.2012 39.7059 53.9862 39.7777 54.0579 40.3514C54.1295 40.8892 54.2371 40.8892 54.3087 40.9251C54.4163 40.9609 54.6313 41.2836 54.4879 41.2478C54.3446 41.2119 53.8787 42.1801 53.8787 42.1801C53.2694 42.6462 53.2694 43.6143 53.2694 43.8295C53.2694 44.0446 53.3769 44.6183 53.4486 44.941C53.5561 45.2637 54.5955 45.5506 54.4879 45.6223C54.3804 45.694 54.1295 45.9091 54.1295 45.9091L53.9503 47.4151H62.7671L62.8388 47.2358C62.803 47.2 62.8388 46.8773 62.1937 46.5546ZM46.7105 29.2358C46.6388 29.2 45.4919 28.3035 45.2769 28.1243C45.1694 28.0167 44.4526 26.941 44.4526 26.941H44.2733V27.5506C44.2733 27.5506 44.5959 28.447 44.8468 28.6621C45.0977 28.8772 45.8145 29.8095 45.707 30.3832C45.707 30.3832 45.5995 32.1043 44.4167 32.6422C43.234 33.2159 43.0189 33.5386 41.1911 33.9689V34.3275C41.2269 34.3275 41.9437 34.6143 42.2663 34.5426C42.5888 34.4709 42.6605 34.5784 43.1623 34.3992C43.6641 34.2199 43.5924 34.5067 43.5924 34.5067C43.5924 34.5067 42.4096 34.9012 42.1229 34.9012C41.8362 34.9012 40.1517 35.0087 40.4026 35.2956C40.6176 35.5824 40.9043 35.69 40.8326 35.8334C40.761 35.941 39.4707 36.3713 39.5065 36.6581C39.5424 36.945 39.8291 36.7299 39.7933 36.9808C39.7574 37.2318 37.607 37.4111 37.5353 37.3036C37.5353 37.3036 37.3919 37.7697 37.5353 37.8773C37.6787 37.9848 36.2809 38.451 35.8508 39.0247C35.4207 39.5984 34.2738 40.3155 34.1304 40.5306C33.9871 40.7458 33.4853 41.0326 33.557 41.9649C33.557 41.9649 32.4459 41.4629 31.6933 42.6462C31.6933 42.6462 31.4782 43.4709 32.2309 43.9729C32.9835 44.4749 33.6645 46.447 34.3096 46.7697L34.8114 47.1283H37.822L37.9296 46.9848C37.9296 46.9848 37.3203 46.0884 36.9977 45.945C36.6751 45.8374 35.7791 45.5506 35.815 44.9769C35.8508 44.4032 35.5999 44.5466 35.9942 43.9012C36.4242 43.2557 39.865 38.3792 42.2304 37.6263C44.5959 36.8733 43.6641 36.192 44.0583 36.5506C44.0583 36.5506 48.5384 32.1761 48.4667 31.9609C48.4667 31.9609 50.2946 31.7099 50.0079 31.6741C49.1835 31.5306 46.7105 29.2358 46.7105 29.2358Z" fill="black"/>
<path d="M37.7862 47.1641C37.7145 47.1641 37.6428 47.1282 37.6428 47.0565C37.6428 46.9848 37.7145 46.9489 37.7862 46.9489C37.8579 46.9489 37.9295 46.9848 37.9295 47.0565C37.9295 47.0924 37.8579 47.1641 37.7862 47.1641Z" fill="black"/>
<path d="M15.794 47.0714H66.0812V1.38503H15.794V47.0714ZM14.4095 48.437V0H67.4462V48.437H14.4095Z" fill="black"/>
</g>
<g clip-path="url(#clip1_75_250)">
<path d="M243.528 18.0347V18C245.377 18.4162 247.051 20.8963 247.051 23.6886C247.051 27.3134 243.231 30.2444 243.336 33.4009H243.371C244.278 29.065 250.992 26.5156 249.58 21.7982C251.481 23.0469 252.387 26.4809 252.649 29.0997C253.486 26.3942 257.201 24.6945 257.811 22.6307H257.846V36.2278H228.442L228.407 29.2732C228.407 25.0934 235.645 25.1975 235.087 21.3299L235.122 21.2952C237.232 24.7639 233.901 27.7469 234.546 29.9669H234.581C236.29 23.3417 242.726 25.1108 244.173 20.8963C244.557 19.6996 244.086 18.4162 243.528 18.0347Z" fill="#CE3829"/>
<path d="M233.517 37.5981C231.808 39.2978 230.029 40.0782 228.442 39.4365V51.9064H257.829V38.7255C255.335 41.7085 252.3 40.4251 252.597 37.9797V37.945C248.01 43.2521 245.394 40.2864 246.127 38.1358V38.1011C241.958 43.1133 239.342 40.1823 240.598 37.6849L240.563 37.6502C235.296 43.9458 231.965 41.6391 233.517 37.6502V37.5981Z" fill="#377BBF"/>
<path d="M267.508 29.5331C267.508 27.7468 267.229 26.4633 263.88 26.4287L263.689 26.1165V25.4574C263.689 25.1973 264.037 25.1626 264.334 25.1626C265.485 25.1626 267.735 25.3534 269.409 25.3534C270.926 25.3534 272.461 25.1626 274.153 25.1626C274.955 25.1626 275.147 25.1626 275.147 25.5788V26.1859C275.147 26.3766 274.693 26.4113 274.065 26.4113C272.496 26.4113 270.944 26.5154 270.944 28.3885V36.9387H287.32V29.828C287.32 27.2091 287.32 26.6368 284.233 26.4113C283.814 26.3766 283.745 26.2552 283.745 25.8043V25.3534L283.936 25.1626C285.192 25.232 287.616 25.3534 289.971 25.3534C292.412 25.3534 293.406 25.284 294.523 25.1626L294.679 25.3881V26.0991C294.679 26.4113 294.331 26.4113 293.755 26.4113C291.767 26.4113 290.773 26.7582 290.773 28.9608V47.7609C290.773 50.5012 292.273 50.7267 294.453 50.7267C294.61 50.7267 294.61 51.299 294.61 51.7152C294.61 51.8713 294.453 51.9927 293.424 51.9927C291.907 51.9927 290.372 51.8019 288.837 51.8019C287.424 51.8019 285.053 51.9927 284.599 51.9927C283.605 51.9927 283.413 51.9233 283.413 51.7673V50.9174L283.605 50.7267C287.285 50.7267 287.355 49.9635 287.355 47.31V38.4129H270.961V48.0211C270.961 50.189 271.537 50.7093 274.362 50.7093C274.78 50.7093 274.903 50.7787 274.903 51.1255V51.6979C274.903 51.9233 274.519 51.9754 273.682 51.9754C272.112 51.9754 270.543 51.7846 268.99 51.7846C267.543 51.7846 266.043 51.9754 264.595 51.9754C264.334 51.9754 263.985 51.9754 263.793 51.7499V50.9001L264.072 50.7093C265.869 50.7093 267.543 50.5532 267.543 48.6281L267.508 29.5331ZM306.696 41.1185C306.696 39.0373 306.434 37.4417 303.644 37.4417C302.615 37.4417 300.696 37.7365 300.696 38.8465C300.696 39.1413 300.766 39.4361 300.888 39.7136L298.481 41.0838C298.342 40.7196 298.255 40.338 298.255 39.9391C298.255 38.7251 299.475 37.7712 300.278 37.3203L303.713 35.3431C304.167 35.083 304.359 34.9616 304.516 34.9616C307.69 34.9616 309.329 36.4878 309.329 39.5922V47.6395C309.329 48.4373 309.329 50.0329 310.55 50.0329C311.282 50.0329 311.422 49.7207 311.928 48.9229L312.643 49.2004C312.189 51.0215 311.23 52.4957 309.591 52.4957C306.992 52.4957 306.731 50.1023 306.765 49.1484C305.318 50.6226 303.399 52.4957 301.15 52.4957C298.935 52.4957 297.784 49.6514 297.784 47.9344C297.784 47.2927 298.499 46.0786 301.673 44.8646L306.678 42.9222L306.696 41.1185ZM306.661 43.9974L302.876 45.6971C302.336 45.9226 300.958 46.651 300.958 47.6395C300.958 48.6801 301.464 50.6052 302.719 50.6052C304.062 50.6052 305.353 49.2698 306.312 48.368L306.661 48.0211V43.9974ZM319.985 47.9517C319.985 49.4606 319.985 50.9174 322.88 50.9174C323.107 50.9174 323.142 51.1082 323.142 51.4551C323.142 51.8019 323.142 51.9927 322.845 51.9927C321.502 51.9927 320.177 51.8019 318.834 51.8019C317.386 51.8019 315.852 51.9927 314.404 51.9927C314.247 51.9927 314.247 51.9233 314.247 51.6979V51.351C314.247 50.9695 314.317 50.9348 315.084 50.9001C316.759 50.796 317.072 50.2237 317.072 48.1598V39.731C317.072 39.0199 316.724 38.5516 315.921 38.3262C315.764 38.2915 314.77 38.014 314.77 37.4937C314.77 37.2682 314.892 37.1468 315.311 36.9561L318.136 35.6727C318.973 35.2911 319.619 34.9963 319.741 34.9963C319.967 34.9963 320.037 35.2217 320.037 35.3431L319.967 39.2627L320.037 39.3321C321.258 37.7885 323.019 35.0136 325.356 35.0136C326.734 35.0136 327.536 35.6553 327.536 37.0601C327.536 37.8579 326.769 38.5343 325.967 38.5343C324.938 38.5343 324.554 37.8579 323.403 37.8579C322.479 37.8579 321.293 39.1413 320.543 40.0952L319.967 40.8063L319.985 47.9517ZM331.443 40.6502C331.443 38.9852 331.373 38.6384 330.571 38.2915L329.193 37.6845C329.123 37.6845 329.123 37.6151 329.123 37.4243C329.123 37.1121 329.158 37.1121 329.42 36.9734L334.076 34.7361C334.303 34.8055 334.303 35.083 334.303 35.2738C334.303 35.9848 334.233 36.7479 334.355 37.4764C335.611 36.8347 338.785 34.9789 340.076 34.9789C344.244 34.9789 347.209 39.124 347.209 42.9568C347.209 50.2584 339.762 52.5304 336.815 52.5304C335.977 52.5304 335.175 52.2702 334.338 52.1835V58.0629C334.338 60.647 334.983 60.7858 337.739 60.9419C337.896 60.9419 338 61.0459 338 61.1673V61.5489C338 61.7743 337.931 61.9998 337.809 61.9998C336.169 61.9998 334.565 61.809 332.803 61.809C331.129 61.809 329.594 61.9998 328.6 61.9998C328.251 61.9998 328.217 61.8437 328.217 61.4622V61.2367C328.217 61.1153 328.251 60.9245 328.339 60.9245C331.251 60.6644 331.426 60.6297 331.426 57.5426V40.6502H331.443ZM334.355 48.1772C334.355 50.1543 336.309 50.796 338.14 50.796C342.029 50.796 344.052 48.1078 344.052 44.2229C344.052 40.8756 342.064 37.4243 338.402 37.4243C336.867 37.4243 335.663 37.7192 334.355 38.6384V48.1772ZM353.975 41.8295C353.906 42.3672 353.906 42.8875 353.906 43.4251C353.906 46.7203 356.469 50.0329 359.94 50.0329C361.353 50.0329 362.347 49.5126 364.248 47.7956L364.928 48.2812C363.411 50.7613 361.108 52.4957 358.056 52.4957C354.167 52.4957 350.993 48.7842 350.993 44.5698C350.993 40.0779 354.045 34.9616 359.051 34.9616C362.451 34.9616 364.858 37.511 364.858 40.6675V41.8469H353.975V41.8295ZM360.62 40.7716C361.126 40.7716 361.684 40.0432 361.684 39.4015C361.684 37.5457 360.271 36.2103 358.405 36.2103C356.103 36.2103 354.551 38.8291 354.167 40.9624L360.62 40.7716ZM373.037 47.9517C373.037 49.4606 373.037 50.9174 375.932 50.9174C376.159 50.9174 376.194 51.1082 376.194 51.4551C376.194 51.8019 376.194 51.9927 375.898 51.9927C374.555 51.9927 373.229 51.8019 371.886 51.8019C370.439 51.8019 368.904 51.9927 367.457 51.9927C367.3 51.9927 367.3 51.9233 367.3 51.6979V51.351C367.3 50.9695 367.369 50.9348 368.137 50.9001C369.811 50.796 370.125 50.2237 370.125 48.1598V39.731C370.125 39.0199 369.776 38.5516 368.974 38.3262C368.817 38.2915 367.823 38.014 367.823 37.4937C367.823 37.2682 367.927 37.1468 368.346 36.9561L371.171 35.6727C372.008 35.2911 372.654 34.9963 372.776 34.9963C373.003 34.9963 373.09 35.2217 373.09 35.3431L373.003 39.2627L373.09 39.3321C374.311 37.7885 376.072 35.0136 378.391 35.0136C379.769 35.0136 380.571 35.6553 380.571 37.0601C380.571 37.8579 379.804 38.5343 379.002 38.5343C377.973 38.5343 377.589 37.8579 376.438 37.8579C375.514 37.8579 374.328 39.1413 373.578 40.0952L373.003 40.8063L373.037 47.9517Z" fill="#CE3829"/>
<path d="M407.952 50.4495C405.389 51.6982 402.302 52.496 398.831 52.496C391.349 52.496 383.065 47.2236 383.065 38.4826C383.065 30.1578 390.809 24.6079 398.639 24.6079C401.203 24.6079 405.598 25.4925 407.813 26.8106L408.319 31.2158C408.353 31.5106 408.441 31.9268 408.441 32.1176C408.441 32.3778 407.83 32.3778 407.673 32.3778C407.516 32.3778 407.168 31.7707 406.644 30.522C405.546 27.9032 402.18 26.0821 398.814 26.0821C391.524 26.0821 387.356 32.0482 387.356 38.8815C387.356 45.1078 392.396 51.0045 398.814 51.0045C401.064 51.0045 403.976 50.2067 405.493 48.9927C406.679 48.0388 407.168 46.3391 407.638 44.9343C407.673 44.8649 407.9 44.8649 408.092 44.8649C408.388 44.8649 408.964 44.8996 408.859 45.4373L407.952 50.4495ZM421.765 34.9619C426.317 34.9619 430.276 38.9162 430.276 43.4601C430.276 48.9406 425.724 52.496 420.736 52.496C416.114 52.496 412.452 48.6284 412.452 43.9804C412.452 38.9162 416.69 34.9619 421.765 34.9619ZM420.893 36.2106C417.039 36.2106 415.888 39.818 415.888 43.4601C415.888 46.8074 417.684 51.2473 421.625 51.2473C425.357 51.2473 426.857 47.9347 426.857 44.6742C426.857 40.876 425.549 36.2106 420.893 36.2106ZM438.839 49.0967C438.839 49.9292 438.839 50.9178 441.472 50.9178C441.559 50.9178 441.559 51.1432 441.559 51.4381C441.559 51.7849 441.524 51.9757 441.437 51.9757C439.955 51.9757 438.263 51.7849 437.461 51.7849C436.083 51.7849 434.723 51.9757 433.328 51.9757C433.066 51.9757 432.979 51.8543 432.979 51.7156V51.3687C432.979 50.9178 433.101 50.9178 433.641 50.9178C435.316 50.9178 435.926 50.6923 435.926 48.9059V28.3888C435.926 25.9954 435.926 25.8393 434.444 25.2323C433.868 25.0068 433.328 24.8161 433.328 24.5212C433.328 24.2264 433.711 24.105 435.281 23.498L438.071 22.4574C438.263 22.3707 438.455 22.3186 438.647 22.2666C438.926 22.2666 438.926 22.6482 438.926 22.8736C438.926 24.6947 438.839 26.5504 438.839 28.3714V49.0967ZM449.46 49.0967C449.46 49.9292 449.46 50.9178 452.093 50.9178C452.18 50.9178 452.18 51.1432 452.18 51.4381C452.18 51.7849 452.128 51.9757 452.058 51.9757C450.576 51.9757 448.884 51.7849 448.082 51.7849C446.704 51.7849 445.344 51.9757 443.948 51.9757C443.687 51.9757 443.6 51.8543 443.6 51.7156V51.3687C443.6 50.9178 443.722 50.9178 444.245 50.9178C445.937 50.9178 446.547 50.6923 446.547 48.9059V28.3888C446.547 25.9954 446.547 25.8393 445.065 25.2323C444.489 25.0068 443.948 24.8161 443.948 24.5212C443.948 24.2264 444.332 24.105 445.902 23.498L448.692 22.4574C448.884 22.3707 449.076 22.3186 449.268 22.2666C449.547 22.2666 449.547 22.6482 449.547 22.8736C449.547 24.6947 449.46 26.5504 449.46 28.3714V49.0967ZM460.08 49.0967C460.08 49.9292 460.08 50.9178 462.714 50.9178C462.801 50.9178 462.801 51.1432 462.801 51.4381C462.801 51.7849 462.766 51.9757 462.679 51.9757C461.197 51.9757 459.505 51.7849 458.703 51.7849C457.325 51.7849 455.947 51.9757 454.569 51.9757C454.308 51.9757 454.221 51.8543 454.221 51.7156V51.3687C454.221 50.9178 454.343 50.9178 454.883 50.9178C456.558 50.9178 457.168 50.6923 457.168 48.9059V41.0841C457.168 38.6907 457.168 38.5346 455.686 37.9276C455.11 37.7022 454.569 37.5114 454.569 37.2165C454.569 36.9217 454.953 36.8003 456.523 36.1759L459.313 35.1527C459.505 35.066 459.697 34.9966 459.889 34.9619C460.168 34.9619 460.168 35.3435 460.168 35.5689C460.168 37.39 460.08 39.2631 460.08 41.0841V49.0967ZM458.511 23.6888C459.697 23.6888 460.656 24.6426 460.656 25.8046C460.656 26.984 459.697 27.9379 458.528 27.9379C457.342 27.9379 456.383 26.984 456.383 25.822C456.383 24.6426 457.325 23.6888 458.511 23.6888ZM467.789 39.2457C467.789 38.5173 467.44 38.0664 467.074 37.997L465.818 37.7022C465.714 37.6675 465.592 37.5461 465.592 37.2859C465.592 37.1645 465.626 36.9044 465.818 36.8697C467.737 36.3841 470.318 34.9793 470.562 34.9793C470.719 34.9793 470.719 35.2741 470.719 35.4302V38.049C472.515 36.6442 474.538 34.9793 476.98 34.9793C480.293 34.9793 481.724 36.835 481.724 40.0262V49.2875C481.724 50.9178 482.979 50.9178 484.252 50.9178C484.322 50.9178 484.409 50.9871 484.409 51.1779V51.8716C484.409 51.941 484.34 51.9757 484.217 51.9757C482.7 51.9757 481.706 51.7849 480.433 51.7849C479.055 51.7849 477.712 51.9757 476.352 51.9757C476.09 51.9757 476.09 51.2993 476.09 51.1432C476.09 51.0392 476.247 50.9178 476.474 50.9178C477.084 50.9178 478.846 50.9178 478.846 49.7731V40.8413C478.846 38.4826 478.131 37.1472 475.445 37.1472C473.841 37.1472 471.852 38.1011 470.754 39.1937V49.062C470.754 49.9119 470.754 50.8831 473.387 50.8831C473.457 50.8831 473.457 51.1085 473.457 51.4207C473.457 51.7676 473.422 51.9584 473.352 51.9584C471.87 51.9584 470.178 51.7676 469.376 51.7676C467.998 51.7676 466.638 51.9584 465.243 51.9584C464.981 51.9584 464.894 51.8543 464.894 51.6809V51.334C464.894 50.8831 465.016 50.8831 465.539 50.8831C467.213 50.8831 467.824 50.6576 467.824 48.8713L467.789 39.2457ZM497.385 39.662H496.425C495.972 37.997 495.083 36.2106 493.06 36.2106C491.298 36.2106 489.92 37.0431 489.92 38.8295C489.92 40.3037 491.943 41.2228 493.932 42.3155C495.955 43.4601 497.943 44.7956 497.943 47.1369C497.943 50.4321 494.891 52.496 491.804 52.496C489.327 52.496 486.921 51.386 486.868 50.779L486.676 47.3277L487.775 47.2063C487.932 47.3971 487.967 47.6572 488.037 47.9347C488.455 49.4956 490.182 51.2299 491.856 51.2299C493.809 51.2299 495.03 50.0506 495.03 48.0735C495.03 46.8247 493.269 45.4893 492.31 45.0037C490.095 43.859 487.269 42.5756 487.269 39.6793C487.269 36.5228 490.182 34.9272 493.077 34.9272C494.594 34.9272 496.129 35.3435 497.576 36.1066L497.385 39.662Z" fill="#377BBF"/>
<path d="M508.232 31.5453C508.686 29.7936 509.069 28.198 509.069 27.9379C509.069 26.9146 508.302 26.6024 507.395 26.6024C506.785 26.6024 506.174 26.7932 506.052 26.7932C505.93 26.7932 505.895 26.6718 505.895 26.3423C505.895 25.7353 506 25.5792 506.628 25.5445C510.064 25.267 511.825 25.1629 514.877 25.1629C519.15 25.1629 523.231 26.9493 523.231 31.6667C523.231 36.1413 519.69 40.3904 514.982 40.3904C513.342 40.3904 511.773 40.0435 511.04 39.3324L511.651 38.4479C512.139 38.8295 513.063 39.1417 514.249 39.1417C517.301 39.1417 519.673 34.6497 519.673 31.6147C519.673 28.4582 517.545 26.6371 514.336 26.6371C513.185 26.6371 512.732 26.7585 512.505 27.5563L506.924 48.2989C506.855 48.5591 506.576 49.4783 506.576 49.7384C506.576 50.6923 507.796 50.727 508.947 50.727H509.488C509.715 50.727 509.837 50.7964 509.837 51.0739C509.837 51.2993 509.68 51.5768 509.558 51.837C509.488 51.993 509.104 51.993 508.843 51.993C508.145 51.993 506.105 51.8023 504.186 51.8023C502.39 51.8023 500.628 52.0277 500.105 51.993C499.948 51.993 499.913 51.9237 499.913 51.7676C499.913 51.2299 500.018 50.7443 500.262 50.7443C502.634 50.7443 503.21 50.4495 503.663 48.6631L508.232 31.5453ZM525.777 39.0202C527.068 37.8062 529.178 34.9619 531.079 34.9619C531.846 34.9619 532.422 35.2741 532.422 36.1413C532.422 36.6789 531.846 37.9623 531.689 38.4132L529.213 44.6395C528.567 46.2698 527.992 47.5705 527.992 47.9C527.992 48.2816 528.219 48.5764 528.689 48.5764C530.137 48.5764 536.241 40.5985 537.549 39.1243C538.508 38.049 539.223 36.4881 540.113 35.3261C540.339 35.0313 540.688 34.9446 541.02 34.9446C541.525 34.9446 541.979 35.5169 541.979 35.9678C541.979 36.6095 537.584 46.9461 537.584 48.6111C537.584 49.0273 537.933 49.2528 538.159 49.2528C539.45 49.2528 541.333 46.5472 542.136 45.4199C542.362 45.4199 542.816 45.8015 542.816 45.9923C541.665 48.0388 538.002 52.496 535.596 52.496C534.95 52.496 534.41 51.8196 534.41 51.0565C534.41 49.9986 537.357 42.8184 537.845 41.3443H537.758C536.189 43.2 527.748 52.5133 525.951 52.5133C525.306 52.5133 524.696 51.837 524.696 51.1779C524.696 48.4724 529.091 39.9741 529.091 38.7948C529.091 38.4132 528.742 38.1878 528.55 38.1878C528.062 38.1878 526.754 39.3671 526.37 39.7834L525.777 39.0202ZM550.28 43.0092L550.35 43.0786C552.565 40.2343 556.541 34.9446 560.36 34.9446C562.575 34.9446 563.831 36.6789 563.831 38.8468C563.831 44.5875 554.815 52.496 549.321 52.496C547.821 52.496 545.85 51.8543 545.85 50.0159C545.85 49.1487 548.676 40.7893 549.094 39.159C549.286 38.4306 552.652 27.0013 552.652 25.4404C552.652 24.3305 551.728 24.105 550.28 24.0009L550.35 23.1338C551.954 22.943 555.477 22.2666 556.157 22.2666C556.349 22.2666 556.576 22.2666 556.663 22.4227L550.28 43.0092ZM559 36.8523C556.245 36.8523 548.728 45.5587 548.728 49.2701C548.728 50.3281 549.914 50.779 550.821 50.779C554.256 50.779 560.796 42.2808 560.796 38.9335C560.796 37.5114 560.134 36.8523 559 36.8523ZM572.83 28.9611C573.109 27.9552 573.336 26.9493 573.475 25.926C573.475 24.712 572.22 24.3825 571.26 24.2264L571.54 23.3419C573.458 23.1164 576.806 22.2839 577.225 22.2839C577.382 22.2839 577.452 22.3533 577.452 22.5094C577.452 22.6655 577.26 23.3419 576.841 24.712L570.964 44.6395C570.458 46.3218 569.935 47.9347 569.935 48.7845C569.935 49.2701 570.319 49.6517 570.824 49.6517C572.01 49.6517 573.615 47.5185 574.522 46.7207H574.679L575.254 47.293V47.3971C573.964 49.2181 570.72 52.496 568.348 52.496C567.424 52.4787 566.691 51.7329 566.709 50.831C566.709 50.6403 566.935 49.7731 567.249 48.5938L572.83 28.9611ZM577.975 38.656C578.62 37.442 581.602 34.9966 583.085 34.9619C584.34 34.9619 585.003 35.5342 585.003 36.7483C585.003 37.997 580.608 47.9521 580.608 49.0967C580.608 49.513 580.992 49.8598 581.568 49.8598C582.788 49.8598 584.62 47.241 585.509 46.4085C585.666 46.4085 586.189 46.8247 586.189 46.9808C584.899 48.9927 581.916 52.5307 579.318 52.5307C578.167 52.5307 577.364 52.0277 577.364 50.8137C577.364 49.3048 581.759 39.9568 581.759 38.3265C581.759 37.9103 581.533 37.6501 581.114 37.6501C580.469 37.6501 579.353 38.5867 578.777 39.2457L577.975 38.656ZM585.352 24.6253C586.346 24.6253 587.148 25.3884 587.148 26.377C587.148 27.3655 586.346 28.1633 585.352 28.1633C584.358 28.1633 583.591 27.3655 583.591 26.377C583.591 25.3884 584.358 24.6253 585.352 24.6253ZM595.589 34.9619C596.74 34.9619 598.641 35.3435 598.641 36.8176C598.641 37.6154 598.066 38.3439 597.42 38.3439C596.2 38.3439 596.235 36.4361 594.368 36.4361C593.148 36.4361 591.997 37.7715 591.997 38.8642C591.997 40.5811 597.037 44.2232 597.037 46.4605C597.037 49.2701 593.601 52.496 590.724 52.496C588.927 52.496 587.288 52.2359 587.288 50.1026C587.288 49.3395 587.933 48.7325 588.578 48.7325C589.799 48.7325 589.834 50.2761 591.857 50.2761C593.148 50.2761 594.334 49.2181 594.334 47.8827C594.334 45.9749 589.747 42.645 589.747 40.8933C589.782 37.7715 592.38 34.9619 595.589 34.9619ZM605.129 43.9284L605.199 43.9978C607.187 41.1535 611.32 34.9619 615.366 34.9619C617.895 34.9619 618.505 36.9737 618.505 39.107C618.505 43.0266 614.18 52.5133 609.524 52.5133C608.844 52.5133 607.884 52.0624 607.884 51.2646C607.884 50.3454 608.39 49.4783 609.297 49.4783C609.594 49.4783 609.873 49.5997 610.134 49.7558C610.378 49.9292 610.675 50.0333 610.971 50.0506C613.413 50.0506 615.436 41.431 615.436 39.4538C615.436 38.3439 615.157 37.2512 613.832 37.2512C611.041 37.2512 607.536 42.6103 605.094 46.5993C603.368 49.4089 603.106 51.0045 602.53 52.1491C602.373 52.444 602.025 52.5307 601.728 52.5307C601.379 52.5307 600.472 52.1838 600.472 51.5421C600.472 50.675 604.78 37.6501 605.391 35.2914C605.704 34.1468 607.693 26.932 607.693 25.9087C607.693 24.66 606.995 24.4692 605.321 24.2784L605.548 23.4113C606.89 23.1511 608.251 23.0297 609.559 22.6135C610.064 22.4574 610.553 22.3013 611.041 22.3013C611.233 22.3013 611.617 22.336 611.617 22.5788C611.617 22.995 609.018 31.7014 608.443 33.4877L605.129 43.9284ZM632.056 34.9619C634.236 34.9619 636.416 35.6036 636.416 38.1184C636.416 42.5236 629.109 43.7723 625.76 43.9284C625.656 44.7956 625.464 45.6454 625.464 46.5126C625.464 48.4897 626.528 50.3107 628.708 50.3107C630.661 50.3107 631.882 49.5476 633.26 48.1428C633.452 48.1775 633.905 48.4377 633.992 48.7845C632.457 51.0912 630.173 52.496 627.417 52.496C623.86 52.496 622.412 49.9465 622.412 46.7554C622.395 41.7605 626.371 34.9619 632.056 34.9619ZM631.899 36.0199C628.812 36.0199 626.789 40.5118 626.022 43.0439C628.69 42.8184 633.731 41.6391 633.731 38.0664C633.748 36.939 633.173 36.0199 631.899 36.0199ZM645.468 37.9623C645.468 38.9509 645.171 40.5465 644.7 42.3328H644.77C646.113 40.0955 649.008 34.9619 651.153 34.9619C652.147 34.9619 653.246 35.5689 653.246 36.6616C653.246 37.8062 652.479 38.4826 651.293 38.4826C650.944 38.4653 650.63 38.3265 650.368 38.1011C650.089 37.8756 649.915 37.6154 649.723 37.6154C648.467 37.6154 645.363 43.9631 644.526 45.8882C643.95 47.1716 642.468 52.496 641.387 52.496C640.881 52.496 639.817 52.2705 639.817 51.7329C639.817 51.4381 640.776 48.8886 641.77 45.8015C642.485 43.5642 643.218 41.3269 643.218 40.0608C643.218 39.1937 643.061 37.9796 641.683 37.9796C640.916 37.9796 639.957 39.4191 639.468 40.2169C639.172 40.0782 638.91 39.9048 638.666 39.6793C639.381 38.1184 641.3 34.9272 643.131 34.9272C644.805 34.9619 645.468 36.7483 645.468 37.9623ZM661.356 34.9619C662.507 34.9619 664.408 35.3435 664.408 36.8176C664.408 37.6154 663.832 38.3439 663.187 38.3439C661.966 38.3439 662.001 36.4361 660.135 36.4361C658.914 36.4361 657.763 37.7715 657.763 38.8642C657.763 40.5811 662.803 44.2232 662.803 46.4605C662.803 49.2701 659.367 52.496 656.49 52.496C654.693 52.496 653.054 52.2359 653.054 50.1026C653.054 49.3395 653.699 48.7325 654.345 48.7325C655.565 48.7325 655.6 50.2761 657.623 50.2761C658.914 50.2761 660.1 49.2181 660.1 47.8827C660.1 45.9749 655.513 42.645 655.513 40.8933C655.548 37.7715 658.147 34.9619 661.356 34.9619Z" fill="#989A9C"/>
</g>
<path fill-rule="evenodd" clip-rule="evenodd" d="M842.313 7.86231C842.924 8.34541 843.381 9.10783 843.636 9.99807V13.7857C843.585 15.8704 843.636 17.1159 843.814 17.472L844.094 18.8196C844.627 20.3701 845.416 21.9211 846.534 23.4464C848.543 26.0395 849.839 27.9461 850.398 29.2427C852.051 32.3953 852.508 35.3698 851.823 38.2676C851.517 38.3693 850.857 37.4799 849.865 35.4711C848.771 33.2847 847.882 32.0392 847.373 31.7341C847.171 31.4544 846.941 31.4544 846.712 31.7341C846.534 31.8105 846.534 32.1409 846.763 32.624L847.373 34.2762L848.314 39.1574L848.416 41.5219C848.314 42.818 848.187 43.7083 847.958 44.3686L846.992 46.301C846.534 46.9617 846.28 47.4958 846.178 47.7494L845.823 48.7418C845.746 48.9704 845.823 49.0974 846.052 49.3261L848.975 51.7159L849.306 52.199C849.306 52.4277 848.848 52.5289 848.06 52.6053L847.297 52.3766L846.713 52.199L846.281 52.3003L845.823 52.7323L845.518 53.4951C845.417 53.7238 845.289 53.7749 845.06 53.7749L844.298 53.5462L843.815 52.9618C843.408 52.6053 842.976 52.3766 842.492 52.3766L841.272 52.5289L840.967 52.4277L841.069 51.8433C841.146 51.6399 841.374 51.4868 841.629 51.3092L842.264 51.0547L843.281 50.2927C843.585 49.9873 843.739 49.5042 843.739 48.8181C843.382 48.4363 842.493 48.284 841.196 48.284L839.188 48.6148L837.815 49.1742L834.815 49.7586H834.383C834.255 49.7586 834.154 49.9362 834.255 50.1653L834.51 50.9531C834.738 51.3087 834.916 51.5374 834.916 51.7159C834.916 52.4277 834.738 52.9618 834.383 53.2664H833.925C833.569 53.0631 833.264 52.8846 832.959 52.8344L832.146 52.6559L831.485 52.9614L830.722 53.088L830.239 52.7323L829.934 52.0716C829.934 51.9442 829.782 51.7661 829.578 51.7159L828.155 51.5374H827.621L827.468 51.2838C827.468 51.0543 827.697 50.7497 828.053 50.521C828.46 50.2155 828.816 50.0628 829.044 50.0628L831.714 49.9354C831.948 49.6288 832.073 49.2533 832.07 48.8679C832.07 48.8177 831.841 48.5123 831.409 48.0802L830.29 47.0376L829.171 45.7154C828.358 44.1395 828.002 42.5125 828.002 40.8097L828.688 36.4875L829.171 33.4623V32.6236C829.171 32.3949 829.12 32.3438 828.943 32.3438C828.714 32.3438 828.358 32.5725 827.926 33.0303C827.036 33.9454 826.578 34.81 826.578 35.4707L826.146 40.7337C826.146 41.0894 826.019 41.0894 825.689 40.6316L824.951 39.3097C824.596 38.3689 824.367 36.9453 824.24 35.0133C824.138 34.0471 824.367 33.1577 824.723 32.1662L825.791 30.1325C827.164 26.7766 828.714 23.9041 830.468 21.4887L833.189 18.1074C833.849 17.4467 834.256 16.8108 834.459 16.3788C834.688 15.6923 834.815 15.0316 834.917 14.3198V12.4385C834.917 11.5486 834.155 10.6588 832.604 9.76897L831.053 8.87914L830.239 8.21841C830.239 7.86231 830.9 7.76063 832.248 7.86231L835.146 8.091L836.696 7.76063L838.477 7.32817C840.306 6.97248 841.628 7.20158 842.313 7.86231ZM851.288 11.1929C855.076 17.0399 857.007 24.1586 857.007 32.497C857.007 40.8105 855.076 47.9283 851.288 53.7753C849.432 56.5207 847.372 58.7582 845.059 60.3087C842.619 61.8854 840.077 62.6221 837.407 62.6221C834.814 62.6221 832.297 61.8854 829.831 60.3087C827.467 58.7582 825.382 56.5207 823.603 53.7753C819.764 47.9283 817.807 40.8105 817.807 32.497C817.807 24.1586 819.764 17.0403 823.603 11.1929C825.383 8.44709 827.467 6.31175 829.831 4.73546C832.297 3.1849 834.814 2.3457 837.407 2.3457C840.077 2.3457 842.619 3.18448 845.059 4.73546C847.373 6.31175 849.433 8.44709 851.288 11.1929Z" fill="#C56834"/>
<path fill-rule="evenodd" clip-rule="evenodd" d="M842.314 7.86244C842.924 8.34554 843.381 9.10795 843.636 9.9982V13.7858C843.585 15.8705 843.636 17.116 843.814 17.4721L844.094 18.8197C844.627 20.3703 845.416 21.9213 846.534 23.4465C848.543 26.0396 849.839 27.9463 850.398 29.2428C852.051 32.3954 852.508 35.37 851.823 38.2677C851.517 38.3694 850.857 37.48 849.865 35.4712C848.772 33.2848 847.883 32.0393 847.373 31.7343C847.171 31.4545 846.941 31.4545 846.713 31.7343C846.534 31.8106 846.534 32.141 846.764 32.6241L847.373 34.2764L848.315 39.1575L848.416 41.522C848.315 42.8181 848.187 43.7084 847.958 44.3687L846.992 46.3011C846.534 46.9618 846.28 47.496 846.178 47.7496L845.823 48.7419C845.746 48.9706 845.823 49.0976 846.052 49.3263L848.975 51.716L849.306 52.1991C849.306 52.4278 848.848 52.5291 848.06 52.6054L847.297 52.3767L846.713 52.1991L846.281 52.3004L845.823 52.7324L845.518 53.4953C845.417 53.7239 845.289 53.775 845.06 53.775L844.298 53.5463L843.815 52.9619C843.408 52.6054 842.976 52.3767 842.492 52.3767L841.272 52.5291L840.967 52.4278L841.069 51.8434C841.146 51.6401 841.374 51.4869 841.629 51.3093L842.264 51.0549L843.281 50.2929C843.585 49.9874 843.739 49.5043 843.739 48.8183C843.382 48.4364 842.493 48.2841 841.196 48.2841L839.188 48.6149L837.815 49.1744L834.815 49.7587H834.383C834.255 49.7587 834.154 49.9364 834.255 50.1655L834.51 50.9532C834.738 51.3089 834.916 51.5376 834.916 51.716C834.916 52.4278 834.738 52.9619 834.383 53.2666H833.925C833.569 53.0632 833.264 52.8847 832.959 52.8345L832.146 52.6561L831.485 52.9615L830.722 53.0881L830.239 52.7324L829.934 52.0717C829.934 51.9443 829.782 51.7662 829.578 51.716L828.155 51.5376H827.621L827.468 51.284C827.468 51.0545 827.697 50.7498 828.053 50.5211C828.46 50.2157 828.816 50.0629 829.045 50.0629L831.714 49.9355C831.948 49.6289 832.073 49.2535 832.07 48.8681C832.07 48.8178 831.841 48.5124 831.409 48.0803L830.29 47.0378L829.172 45.7155C828.358 44.1396 828.002 42.5127 828.002 40.8098L828.689 36.4876L829.172 33.4625V32.6237C829.172 32.395 829.121 32.344 828.943 32.344C828.714 32.344 828.358 32.5726 827.926 33.0304C827.036 33.9456 826.578 34.8101 826.578 35.4708L826.146 40.7338C826.146 41.0895 826.019 41.0895 825.689 40.6317L824.952 39.3099C824.596 38.369 824.367 36.9454 824.24 35.0135C824.138 34.0473 824.367 33.1578 824.723 32.1663L825.791 30.1327C827.164 26.7767 828.714 23.9043 830.469 21.4888L833.189 18.1075C833.849 17.4468 834.256 16.811 834.46 16.3789C834.688 15.6924 834.815 15.0317 834.917 14.3199V12.4386C834.917 11.5488 834.155 10.6589 832.604 9.7691L831.053 8.87927L830.239 8.21854C830.239 7.86244 830.901 7.76076 832.248 7.86244L835.146 8.09113L836.697 7.76076L838.477 7.3283C840.306 6.97261 841.628 7.20171 842.314 7.86244ZM841.374 9.41342L841.425 10.1252C841.602 11.2437 841.374 12.1335 840.839 12.6673L837.408 15.0317C835.857 15.9975 835.145 16.5823 835.145 16.8114H836.746C837.941 16.5827 839.06 16.3283 840.026 15.7945C842.975 14.3199 843.584 12.3116 841.805 9.76952L841.374 9.41342ZM837.941 10.583C837.941 9.92225 838.246 9.64252 838.933 9.64252C839.594 9.64252 839.848 9.92225 839.848 10.583C839.848 11.2441 839.594 11.5492 838.933 11.6509C838.246 11.5488 837.941 11.2437 837.941 10.583ZM838.526 12.2352C838.043 12.2352 837.636 12.0829 837.281 11.7015C836.925 11.3458 836.746 10.888 836.746 10.3539C836.746 9.87078 836.924 9.41342 837.281 9.032C837.636 8.67632 838.043 8.52359 838.526 8.52359C839.06 8.52359 839.492 8.67632 839.848 9.032C840.255 9.41342 840.382 9.87078 840.483 10.3539C840.382 10.888 840.255 11.3454 839.848 11.7015C839.492 12.0829 839.06 12.2352 838.526 12.2352ZM837.814 17.8029C833.798 17.1164 831.407 21.0061 830.594 29.2682C830.06 35.5982 829.832 39.7419 830.009 41.6996C830.136 43.7084 830.823 45.2589 832.068 46.5049C833.187 47.6234 834.28 48.2082 835.5 48.2082C836.237 48.2082 837.407 47.8525 839.059 47.1909C840.178 46.7336 840.915 46.6066 841.271 46.6576L842.745 47.0386C843.94 47.0386 844.932 46.734 845.746 46.1492C846.839 45.2589 847.423 43.9371 847.423 42.0557C847.423 39.5136 846.712 35.7261 845.186 30.7938C844.983 30.1331 844.627 28.1243 844.17 24.9211C843.814 22.1504 843.508 20.6757 843.152 20.3196C841.425 18.5906 839.645 17.7012 837.814 17.8029ZM851.288 11.1931C855.076 17.0401 857.007 24.1587 857.007 32.4971C857.007 40.8106 855.076 47.9284 851.288 53.7754C849.432 56.5208 847.372 58.7583 845.059 60.3088C842.619 61.8856 840.077 62.6222 837.407 62.6222C834.814 62.6222 832.297 61.8856 829.832 60.3088C827.467 58.7583 825.382 56.5208 823.603 53.7754C819.764 47.9284 817.807 40.8106 817.807 32.4971C817.807 24.1587 819.764 17.0405 823.603 11.1931C825.383 8.44722 827.467 6.31188 829.832 4.73559C832.297 3.18503 834.814 2.34583 837.407 2.34583C840.077 2.34583 842.619 3.18461 845.059 4.73559C847.373 6.31188 849.433 8.44722 851.288 11.1931ZM858.076 20.3192C859.169 24.1583 859.754 28.2509 859.855 32.4967C859.754 36.7167 859.169 40.8102 858.076 44.6484C856.958 48.4364 855.305 51.7662 853.297 54.6652C851.288 57.563 848.949 59.7747 846.28 61.351C843.508 62.9779 840.611 63.7918 837.636 63.7918C834.611 63.7918 831.713 62.9779 828.942 61.351C826.272 59.7743 823.908 57.563 821.9 54.6652C819.816 51.7666 818.265 48.4364 817.146 44.6484C815.968 40.7052 815.369 36.612 815.366 32.4967C815.366 28.2513 816.001 24.1583 817.146 20.3192C818.264 16.557 819.815 13.201 821.9 10.3028C823.908 7.40466 826.272 5.19295 828.942 3.64239C831.713 1.99015 834.611 1.17627 837.636 1.17627C840.611 1.17627 843.508 1.98973 846.28 3.64239C848.95 5.19295 851.288 7.40466 853.297 10.3028C855.305 13.2014 856.957 16.557 858.076 20.3192Z" fill="#272727"/>
<path fill-rule="evenodd" clip-rule="evenodd" d="M808.646 67.6327H810.144V69.6518C810.3 69.3123 810.483 69.0081 810.688 68.74C811.355 67.858 812.218 67.4164 813.275 67.4164C814.245 67.4164 815.003 67.8178 815.549 68.6233C816.093 69.4289 816.367 70.5453 816.367 71.976C816.367 73.456 816.027 74.6471 815.35 75.5498C814.673 76.4525 813.777 76.9036 812.662 76.9036C811.79 76.9036 811.025 76.4741 810.367 75.6162C810.302 75.5144 810.227 75.4189 810.144 75.3307V78.8236H808.646V67.6327ZM812.495 75.6237C813.27 75.6237 813.86 75.3286 814.263 74.7368C814.667 74.1449 814.869 73.28 814.869 72.142C814.869 71.1368 814.677 70.3482 814.292 69.7809C813.907 69.2127 813.372 68.9271 812.691 68.9271C811.861 68.9271 811.227 69.2222 810.794 69.8141C810.359 70.4051 810.144 71.2708 810.144 72.4088V72.6106C810.144 73.5556 810.35 74.2952 810.766 74.8277C811.182 75.3568 811.759 75.6237 812.495 75.6237ZM822.048 76.9036C820.814 76.9036 819.847 76.4861 819.149 75.6473C818.45 74.8106 818.101 73.6494 818.101 72.164C818.101 70.7379 818.46 69.5904 819.178 68.7205C819.893 67.8505 820.836 67.416 822.008 67.416C823.236 67.416 824.137 67.7962 824.707 68.5565C825.27 69.3048 825.55 70.4931 825.55 72.1208V72.164L825.539 72.6222H819.572C819.617 73.5091 819.85 74.2192 820.268 74.7542C820.731 75.3336 821.378 75.6241 822.202 75.6241C822.704 75.6241 823.188 75.4788 823.657 75.1887C824.127 74.8986 824.595 74.4521 825.063 73.8486L825.182 75.4212C824.695 75.9084 824.186 76.2769 823.657 76.5285C823.129 76.7779 822.592 76.9036 822.048 76.9036ZM824.417 71.3414C824.331 70.6694 824.15 70.1415 823.872 69.7614C823.474 69.2052 822.856 68.9271 822.022 68.9271C821.185 68.9271 820.57 69.2077 820.171 69.7684C819.898 70.1436 819.715 70.669 819.627 71.341H824.417V71.3414ZM827.52 67.6327H829.031V69.5522C829.162 69.3123 829.307 69.0819 829.468 68.8632C830.184 67.8987 831.015 67.4164 831.961 67.4164C832.802 67.4164 833.46 67.6895 833.936 68.2336C834.411 68.7798 834.648 69.5389 834.648 70.508V76.6882H833.151V71.2231C833.151 70.4271 833.018 69.8402 832.752 69.4675C832.484 69.094 832.066 68.9064 831.495 68.9064C830.702 68.9064 830.091 69.1965 829.661 69.7738C829.231 70.3511 829.017 71.1729 829.017 72.2395V76.6882H827.52L827.52 67.6327ZM840.455 77.5312C841.161 77.5312 841.729 77.3195 842.161 76.8949C842.592 76.4695 842.807 75.9109 842.807 75.2194V74.2313C842.734 74.352 842.646 74.4761 842.544 74.6064C841.867 75.4593 841.04 75.8872 840.066 75.8872C838.975 75.8872 838.122 75.4975 837.506 74.7206C836.891 73.9432 836.584 72.8666 836.584 71.4887C836.584 70.3739 836.921 69.4169 837.596 68.6159C838.271 67.8149 839.076 67.416 840.008 67.416C841.084 67.416 841.928 67.775 842.536 68.4951C842.648 68.6254 842.748 68.7657 842.835 68.9197V67.6322H844.304V75.7893C844.304 76.592 843.943 77.2954 843.22 77.8993C842.501 78.5024 841.66 78.8041 840.699 78.8041C840.081 78.8072 839.465 78.734 838.865 78.5862C838.288 78.4389 837.836 78.2442 837.511 77.9968V76.6252C837.818 76.8941 838.243 77.1124 838.785 77.2792C839.327 77.4482 839.885 77.5312 840.455 77.5312ZM840.434 68.9271C839.664 68.9271 839.079 69.1604 838.68 69.6236C838.281 70.0872 838.081 70.7641 838.081 71.6551C838.081 72.5803 838.288 73.3024 838.704 73.8229C839.12 74.3458 839.695 74.6069 840.426 74.6069C841.137 74.6069 841.71 74.3192 842.143 73.7469C842.577 73.1737 842.793 72.4184 842.793 71.4821C842.793 70.6794 842.584 70.0548 842.168 69.6032C841.75 69.1533 841.173 68.9271 840.434 68.9271ZM848.075 73.5631C848.075 74.2827 848.208 74.8106 848.474 75.1476C848.743 75.4834 849.161 75.6519 849.731 75.6519C850.525 75.6519 851.138 75.4021 851.571 74.9003C852 74.3993 852.217 73.6842 852.217 72.7554V67.6322H853.714V76.6874H852.37V74.8148C852.215 75.1443 852.016 75.4511 851.778 75.7266C851.105 76.516 850.265 76.9103 849.252 76.9103C848.415 76.9103 847.762 76.6397 847.289 76.0956C846.816 75.5531 846.578 74.7978 846.578 73.8332V67.6322H848.076L848.075 73.5631ZM856.24 67.6327C856.532 67.7397 856.784 67.7916 856.991 67.7916C857.2 67.7916 857.449 67.7397 857.737 67.6327V76.6878H856.24V67.6327ZM857 65.2939C857.333 65.2939 857.585 65.3562 857.758 65.4819C857.929 65.6077 858.014 65.7907 858.014 66.0306C858.014 66.273 857.929 66.456 857.758 66.5768C857.585 66.7009 857.333 66.7623 857 66.7623C856.664 66.7623 856.413 66.7009 856.24 66.5768C856.069 66.456 855.983 66.273 855.983 66.0306C855.983 65.7907 856.069 65.6073 856.24 65.4819C856.413 65.3566 856.664 65.2939 857 65.2939ZM860.384 67.6327H861.895V69.5522C862.025 69.3123 862.17 69.0819 862.332 68.8632C863.048 67.8987 863.879 67.4164 864.824 67.4164C865.666 67.4164 866.324 67.6895 866.799 68.2336C867.274 68.7798 867.512 69.5389 867.512 70.508V76.6882H866.015V71.2231C866.015 70.4271 865.882 69.8402 865.615 69.4675C865.347 69.094 864.929 68.9064 864.359 68.9064C863.566 68.9064 862.954 69.1965 862.525 69.7738C862.094 70.3511 861.88 71.1729 861.88 72.2395V76.6882H860.384V67.6327Z" fill="black"/>
<g clip-path="url(#clip2_75_250)">
<path d="M1116.95 21.1535C1115.15 21.1535 1113.42 21.5973 1111.83 22.4712C1110.34 23.2904 1109.17 24.5199 1108.36 26.1289C1107.83 24.5195 1106.87 23.2904 1105.49 22.4734C1104.02 21.5982 1102.35 21.1535 1100.55 21.1535C1098.32 21.1535 1096.46 21.6348 1095.02 22.5836C1093.65 23.4852 1092.52 24.7333 1091.65 26.2951V21.9318H1088.3V49.0122H1091.92V33.9165C1091.92 32.5203 1092.08 31.2144 1092.39 30.0342C1092.7 28.8609 1093.17 27.8302 1093.81 26.9716C1094.44 26.1099 1095.27 25.4261 1096.27 24.9402C1097.29 24.4515 1098.5 24.2047 1099.86 24.2047C1100.88 24.2047 1101.76 24.3741 1102.48 24.7083C1103.19 25.0424 1103.76 25.5075 1104.18 26.0895C1104.61 26.6701 1104.92 27.3683 1105.11 28.164C1105.3 28.9804 1105.39 29.8341 1105.39 30.7008V49.0122H1109.01V33.7078C1109.01 32.4737 1109.12 31.2691 1109.35 30.1285C1109.57 29.0085 1109.96 27.9865 1110.51 27.0911C1111.05 26.2226 1111.79 25.5153 1112.72 24.9877C1113.64 24.4678 1114.82 24.2047 1116.22 24.2047C1118.54 24.2047 1120.18 24.7713 1121.1 25.8879C1122.01 27.0201 1122.48 28.6906 1122.48 30.8534V49.0122H1126.1V30.7008C1126.1 24.366 1123.02 21.1535 1116.95 21.1535Z" fill="#444142"/>
<path d="M1149.45 34.5566V38.4846C1149.45 39.7756 1149.2 40.9408 1148.71 41.9466C1148.21 42.9641 1147.53 43.8381 1146.69 44.5446C1145.87 45.2487 1144.87 45.7981 1143.72 46.1785C1141.88 46.7793 1139.8 47.0059 1137.93 46.3854C1137.21 46.1467 1136.57 45.7981 1136.03 45.3461C1135.48 44.8864 1135.05 44.3598 1134.73 43.7326C1134.41 43.119 1134.25 42.4017 1134.25 41.5974C1134.25 40.3312 1134.63 39.3468 1135.38 38.6711C1136.15 37.981 1137.15 37.442 1138.35 37.0694C1139.57 36.6913 1140.94 36.4041 1142.4 36.2171C1143.89 36.0283 1145.34 35.8118 1146.74 35.5719C1147.24 35.4899 1147.78 35.3645 1148.34 35.1996C1148.83 35.056 1149.21 34.8414 1149.45 34.5566ZM1154.86 45.962C1153.66 45.962 1153.07 45.3665 1153.07 44.1393V29.9175C1153.07 28.0952 1152.76 26.5977 1152.16 25.4647C1151.55 24.3185 1150.76 23.4191 1149.8 22.7883C1148.82 22.1481 1147.76 21.7241 1146.54 21.4932C1143.73 20.9684 1140.9 21.0675 1138.57 21.6757C1137.27 22.0267 1136.11 22.5783 1135.14 23.3136C1134.15 24.0522 1133.37 25.0123 1132.8 26.1702C1132.24 27.316 1131.9 28.6967 1131.79 30.2748L1131.78 30.4342H1135.4L1135.4 30.2889C1135.47 28.1669 1136.16 26.6072 1137.44 25.6545C1138.74 24.6917 1140.45 24.2044 1142.51 24.2044C1143.49 24.2044 1144.41 24.2819 1145.24 24.4358C1146.08 24.5884 1146.82 24.8701 1147.45 25.274C1148.07 25.6716 1148.57 26.2178 1148.92 26.8979C1149.27 27.5868 1149.45 28.4802 1149.45 29.5548C1149.45 30.2577 1149.36 30.8323 1149.18 31.263C1149 31.6791 1148.74 32.0165 1148.41 32.2651C1148.08 32.511 1147.66 32.6853 1147.16 32.7827C1146.63 32.886 1146.03 32.972 1145.33 33.0412C1143.54 33.2519 1141.78 33.4669 1140.05 33.688C1138.32 33.9126 1136.73 34.3079 1135.33 34.8635C1133.92 35.4296 1132.78 36.257 1131.93 37.3225C1131.07 38.3994 1130.63 39.9069 1130.63 41.8039C1130.63 43.176 1130.87 44.3747 1131.36 45.3687C1131.84 46.3777 1132.51 47.2164 1133.34 47.8616C1134.18 48.5102 1135.17 48.9924 1136.29 49.2941C1137.41 49.5893 1138.62 49.7388 1139.88 49.7388C1141.21 49.7388 1142.38 49.6151 1143.36 49.371C1144.33 49.1274 1145.21 48.7705 1145.98 48.3137C1146.73 47.8671 1147.44 47.2902 1148.06 46.6004C1148.63 45.9787 1149.2 45.2722 1149.72 44.5477C1149.73 45.1029 1149.78 45.6269 1149.85 46.1091C1149.94 46.6988 1150.13 47.2164 1150.43 47.6452C1150.72 48.0827 1151.14 48.4255 1151.67 48.6641C1152.21 48.8978 1152.89 49.0119 1153.76 49.0119C1154.23 49.0119 1154.6 48.9915 1154.91 48.9585C1155.21 48.9273 1155.55 48.8738 1155.95 48.8045L1156.07 48.7833V45.6799L1155.86 45.7687C1155.55 45.8999 1155.22 45.962 1154.86 45.962Z" fill="#444142"/>
<path d="M1178.74 39.2462C1178.64 40.3362 1178.36 41.3506 1177.92 42.2586C1177.47 43.1783 1176.89 43.9753 1176.21 44.6306C1175.53 45.2836 1174.73 45.8058 1173.84 46.183C1172.95 46.5529 1171.99 46.7386 1171.01 46.7386C1169.46 46.7386 1168.09 46.4162 1166.93 45.7749C1165.76 45.1301 1164.78 44.2706 1164.01 43.2223C1163.24 42.1798 1162.64 40.9634 1162.24 39.6085C1161.84 38.2677 1161.64 36.8761 1161.64 35.4726C1161.64 34.0693 1161.84 32.6772 1162.24 31.3372C1162.64 29.9809 1163.24 28.7673 1164.01 27.7272C1164.78 26.6779 1165.76 25.8189 1166.93 25.1744C1168.09 24.5304 1169.46 24.2044 1171.01 24.2044C1173.17 24.2044 1174.87 24.7664 1176.06 25.8773C1177.25 26.9899 1178.09 28.5527 1178.53 30.5235L1178.56 30.6403H1182.17L1182.15 30.4718C1181.76 27.3657 1180.53 25.0095 1178.49 23.469C1176.45 21.9324 1173.94 21.1532 1171.01 21.1532C1168.93 21.1532 1167.06 21.5426 1165.45 22.3097C1163.83 23.0841 1162.47 24.1292 1161.37 25.414C1160.28 26.7 1159.44 28.2261 1158.88 29.9501C1158.31 31.6791 1158.02 33.5377 1158.02 35.4726C1158.02 37.4099 1158.31 39.2684 1158.88 40.9965C1159.44 42.721 1160.28 44.2471 1161.37 45.5309C1162.47 46.8215 1163.84 47.8562 1165.45 48.6066C1167.05 49.3583 1168.92 49.7388 1171.01 49.7388C1174.12 49.7388 1176.7 48.809 1178.68 46.9727C1180.67 45.1346 1181.91 42.5452 1182.36 39.2807L1182.39 39.1099H1178.75L1178.74 39.2462Z" fill="#444142"/>
<path d="M1215.34 21.1535C1213.53 21.1535 1211.81 21.5973 1210.22 22.4712C1208.72 23.2895 1207.56 24.5195 1206.75 26.1293C1206.21 24.5212 1205.25 23.2927 1203.88 22.4739C1202.4 21.5982 1200.74 21.1535 1198.93 21.1535C1196.71 21.1535 1194.85 21.6348 1193.4 22.5836C1192.04 23.482 1190.91 24.7283 1190.04 26.2901V21.9318H1186.69V49.0122H1190.3V33.9165C1190.3 32.5158 1190.46 31.2103 1190.77 30.0352C1191.08 28.865 1191.56 27.8347 1192.19 26.9716C1192.83 26.1112 1193.66 25.4274 1194.66 24.9402C1195.68 24.4515 1196.88 24.2047 1198.25 24.2047C1199.27 24.2047 1200.15 24.3741 1200.87 24.7083C1201.57 25.0424 1202.15 25.5075 1202.57 26.0891C1202.99 26.6718 1203.3 27.3702 1203.49 28.164C1203.68 28.9719 1203.77 29.8255 1203.77 30.7008V49.0122H1207.39V33.7078C1207.39 32.4761 1207.51 31.2719 1207.73 30.1285C1207.95 28.9963 1208.35 27.9743 1208.9 27.0903C1209.44 26.2195 1210.18 25.5116 1211.1 24.9877C1212.03 24.4678 1213.2 24.2047 1214.6 24.2047C1216.93 24.2047 1218.57 24.7713 1219.48 25.8879C1220.4 27.0187 1220.87 28.6889 1220.87 30.8534V49.0122H1224.48V30.7008C1224.48 24.366 1221.41 21.1535 1215.34 21.1535Z" fill="#444142"/>
<path d="M1231.59 49.0122H1235.21V21.9318H1231.59V49.0122Z" fill="#444142"/>
<path d="M1242.37 49.0122H1245.99V11.6559H1242.37V49.0122Z" fill="#444142"/>
<path d="M1253.15 49.0122H1256.77V11.6559H1253.15V49.0122Z" fill="#444142"/>
<path d="M1280.18 34.5561V38.4846C1280.18 39.7711 1279.93 40.9344 1279.43 41.9466C1278.93 42.961 1278.25 43.8345 1277.42 44.5446C1276.59 45.2487 1275.59 45.7989 1274.45 46.1785C1272.6 46.7793 1270.53 47.0049 1268.65 46.3854C1267.94 46.149 1267.3 45.7998 1266.76 45.3461C1266.21 44.8874 1265.78 44.3598 1265.45 43.734C1265.13 43.1135 1264.97 42.3935 1264.97 41.5974C1264.97 40.3308 1265.35 39.3463 1266.11 38.6711C1266.87 37.9827 1267.87 37.4434 1269.07 37.0694C1270.3 36.6899 1271.66 36.4037 1273.12 36.2171C1274.61 36.0283 1276.06 35.8118 1277.46 35.5719C1277.95 35.4926 1278.49 35.3662 1279.06 35.1996C1279.55 35.0574 1279.93 34.8419 1280.18 34.5561ZM1285.59 45.962C1284.38 45.962 1283.79 45.3665 1283.79 44.1393V29.9175C1283.79 28.0985 1283.49 26.6005 1282.89 25.4647C1282.27 24.3163 1281.48 23.4169 1280.52 22.7893C1279.57 22.1584 1278.47 21.7233 1277.26 21.4932C1274.47 20.9698 1271.63 21.0675 1269.3 21.6757C1267.99 22.0289 1266.83 22.58 1265.86 23.3136C1264.87 24.06 1264.09 25.0205 1263.53 26.1702C1262.96 27.3219 1262.61 28.7031 1262.51 30.2748L1262.5 30.4342H1266.12L1266.13 30.2884C1266.19 28.165 1266.88 26.6054 1268.17 25.6545C1269.47 24.6917 1271.17 24.2044 1273.23 24.2044C1274.21 24.2044 1275.13 24.2819 1275.96 24.4358C1276.81 24.5893 1277.53 24.8634 1278.17 25.274C1278.8 25.6699 1279.29 26.2159 1279.64 26.8989C1280 27.5823 1280.18 28.4757 1280.18 29.5548C1280.18 30.2541 1280.08 30.8295 1279.9 31.263C1279.72 31.6809 1279.46 32.0183 1279.14 32.2651C1278.8 32.5105 1278.38 32.6853 1277.88 32.7827C1277.36 32.886 1276.75 32.972 1276.05 33.0413C1274.27 33.2519 1272.51 33.4669 1270.77 33.688C1269.03 33.9154 1267.44 34.3102 1266.05 34.8635C1264.65 35.4246 1263.51 36.252 1262.64 37.3239C1261.79 38.4044 1261.36 39.9119 1261.36 41.8039C1261.36 43.1783 1261.6 44.3783 1262.08 45.3687C1262.56 46.375 1263.23 47.2141 1264.07 47.8616C1264.9 48.5129 1265.9 48.9938 1267.01 49.2941C1268.13 49.5893 1269.34 49.7388 1270.6 49.7388C1271.93 49.7388 1273.1 49.6151 1274.09 49.371C1275.06 49.1264 1275.94 48.7705 1276.7 48.3137C1277.47 47.8571 1278.17 47.2812 1278.78 46.6004C1279.35 45.9832 1279.91 45.275 1280.45 44.5469C1280.46 45.1256 1280.5 45.6418 1280.58 46.1115C1280.66 46.6978 1280.86 47.2133 1281.15 47.6452C1281.45 48.0827 1281.87 48.4255 1282.4 48.6641C1282.93 48.8978 1283.61 49.0119 1284.48 49.0119C1284.95 49.0119 1285.33 48.9915 1285.63 48.9585C1285.93 48.9273 1286.28 48.8738 1286.67 48.8045L1286.79 48.7833V45.6789L1286.58 45.7687C1286.28 45.8972 1285.94 45.962 1285.59 45.962Z" fill="#444142"/>
<path d="M1312.97 27.2882C1312.65 25.9921 1312.1 24.8804 1311.31 23.9838C1310.54 23.092 1309.48 22.3874 1308.17 21.8897C1306.88 21.4016 1305.26 21.1535 1303.36 21.1535C1301.41 21.1535 1299.6 21.6597 1297.97 22.6568C1296.47 23.5757 1295.37 24.788 1294.73 26.191V21.9318H1291.12V49.0122H1294.73V33.2449C1294.77 31.9461 1294.98 30.7307 1295.38 29.6335C1295.78 28.5258 1296.34 27.5626 1297.03 26.7723C1297.73 25.9844 1298.6 25.3505 1299.61 24.8908C1300.62 24.4357 1301.8 24.2047 1303.1 24.2047C1304.4 24.2047 1305.5 24.4085 1306.37 24.811C1307.24 25.2163 1307.94 25.777 1308.44 26.4785C1308.95 27.1764 1309.31 28.0218 1309.52 28.9899C1309.73 29.9504 1309.83 31.0137 1309.83 32.1509V49.0122H1313.45V31.6319C1313.45 30.0388 1313.29 28.577 1312.97 27.2882Z" fill="#444142"/>
<path d="M1233.47 11.6557C1232.22 11.6557 1231.2 12.6656 1231.2 13.9055C1231.2 15.1427 1232.22 16.1489 1233.47 16.1489C1234.73 16.1489 1235.75 15.1427 1235.75 13.9055C1235.75 12.6656 1234.73 11.6557 1233.47 11.6557Z" fill="#444142"/>
<path d="M1093.27 66.6187H1090.12V61.1157H1093.35C1095.53 61.1157 1096.79 62.1115 1096.79 63.8496C1096.79 65.5328 1095.41 66.6187 1093.27 66.6187ZM1093.46 59.4365H1088.31V72.9351H1090.12V68.2775H1093.21C1095.9 68.2775 1098.62 66.8904 1098.62 63.793C1098.62 61.146 1096.6 59.4365 1093.46 59.4365Z" fill="#ED1948"/>
<path d="M1107.54 68.6181C1107.54 70.3276 1106.39 71.5218 1104.73 71.5218C1103.12 71.5218 1102.15 70.4771 1102.15 68.7313V62.8873H1100.38V69.0905C1100.38 71.5503 1101.92 73.1421 1104.31 73.1421C1105.67 73.1421 1106.73 72.6267 1107.54 71.5721V72.9351H1109.3V62.8873H1107.54V68.6181Z" fill="#ED1948"/>
<path d="M1117.82 64.2798C1119.74 64.2798 1121.14 65.8114 1121.14 67.9198C1121.14 70.0523 1119.77 71.539 1117.82 71.539C1116.14 71.539 1114.4 70.1782 1114.4 67.9026C1114.4 65.6352 1116.14 64.2798 1117.82 64.2798ZM1118.08 62.679C1116.63 62.679 1115.44 63.2867 1114.46 64.5357V58.8715H1112.68V72.9351H1114.46V71.3714C1115.41 72.5466 1116.63 73.1421 1118.08 73.1421C1120.44 73.1421 1122.95 71.3044 1122.95 67.9026C1122.95 64.5085 1120.44 62.679 1118.08 62.679Z" fill="#ED1948"/>
<path d="M1125.5 72.9351H1127.27V58.8714H1125.5V72.9351Z" fill="#ED1948"/>
<path d="M1130.81 61.0586H1132.79V59.1548H1130.81V61.0586Z" fill="#ED1948"/>
<path d="M1130.9 72.9351H1132.68V62.8873H1130.9V72.9351Z" fill="#ED1948"/>
<path d="M1139.93 67.0648C1138.71 66.6967 1137.55 66.348 1137.55 65.5061C1137.55 64.7508 1138.25 64.2436 1139.31 64.2436C1140.21 64.2436 1141.22 64.5705 1142.15 65.162L1142.28 65.2457L1143.1 63.8962L1142.98 63.8165C1141.92 63.1296 1140.57 62.7175 1139.34 62.7175C1137.28 62.7175 1135.83 63.9266 1135.83 65.6972C1135.83 67.6467 1137.78 68.1924 1139.21 68.5923C1140.54 68.96 1141.56 69.3087 1141.56 70.2022C1141.56 71.0363 1140.8 71.5969 1139.67 71.5969C1138.56 71.5969 1137.41 71.1767 1136.34 70.3833L1136.22 70.2914L1135.3 71.5675L1135.41 71.6567C1136.54 72.5611 1138.14 73.123 1139.59 73.123C1141.79 73.123 1143.26 71.8877 1143.26 70.0129C1143.26 68.0511 1141.29 67.4656 1139.93 67.0648Z" fill="#ED1948"/>
<path d="M1150.69 62.6789C1149.34 62.6789 1148.25 63.2056 1147.46 64.2449V58.8714H1145.69V72.9351H1147.46V67.2038C1147.46 65.4948 1148.62 64.301 1150.27 64.301C1151.89 64.301 1152.85 65.3417 1152.85 67.0897V72.9351H1154.63V66.7319C1154.63 64.2716 1153.08 62.6789 1150.69 62.6789Z" fill="#ED1948"/>
<path d="M1161.69 64.2074C1163.63 64.2074 1164.5 65.7344 1164.68 67.2234H1158.66C1158.9 65.4392 1160.13 64.2074 1161.69 64.2074ZM1161.73 62.6791C1158.94 62.6791 1156.84 64.9329 1156.84 67.9199C1156.84 70.9073 1159.03 73.1616 1161.92 73.1616C1163.63 73.1616 1164.93 72.5806 1166.11 71.2809L1166.21 71.17L1165.06 70.1624L1164.96 70.2679C1164.09 71.1745 1163.13 71.597 1161.96 71.597C1160.21 71.597 1158.9 70.3979 1158.66 68.5978H1166.45L1166.47 68.4633C1166.49 68.2876 1166.49 68.1314 1166.49 67.9964C1166.49 64.8165 1164.58 62.6791 1161.73 62.6791Z" fill="#ED1948"/>
<path d="M1170.92 64.9577V62.8873H1169.15V72.9351H1170.92V68.9011C1170.92 66.2782 1172.4 64.5823 1174.8 64.5823H1174.95V62.7233L1174.63 62.7143C1173.1 62.7143 1171.75 63.5416 1170.92 64.9577Z" fill="#ED1948"/>
<path d="M1180.64 67.0635C1179.41 66.6935 1178.25 66.3462 1178.25 65.5061C1178.25 64.763 1178.98 64.2436 1180.01 64.2436C1180.9 64.2436 1181.94 64.5778 1182.85 65.162L1182.98 65.2457L1183.81 63.8962L1183.69 63.8165C1182.63 63.1296 1181.27 62.7175 1180.05 62.7175C1177.98 62.7175 1176.54 63.9266 1176.54 65.6972C1176.54 67.6467 1178.49 68.1924 1179.92 68.5923C1181.25 68.9577 1182.27 69.3078 1182.27 70.2022C1182.27 71.0363 1181.51 71.5969 1180.37 71.5969C1179.27 71.5969 1178.12 71.1767 1177.05 70.3833L1176.93 70.2914L1176 71.5675L1176.12 71.6567C1177.25 72.5611 1178.85 73.123 1180.3 73.123C1182.49 73.123 1183.97 71.8877 1183.97 70.0129C1183.97 68.052 1181.99 67.4656 1180.64 67.0635Z" fill="#ED1948"/>
<path d="M1072.31 6.69478V73.3052H1074.07V6.69478H1072.31Z" fill="#7B7979"/>
<mask id="mask0_75_250" style="mask-type:luminance" maskUnits="userSpaceOnUse" x="1010" y="28" width="49" height="26">
<path d="M1058.44 40.7307C1058.44 28.79 1049.78 27.6215 1043.2 32.9317C1039.03 36.3081 1033.66 42.4433 1033.66 36.6129C1033.66 22.7929 1019.66 28.9055 1010.41 40.7555L1010.41 53.5571C1019.67 41.7156 1033.66 35.6085 1033.66 49.4254C1033.66 55.2558 1039.03 49.1206 1043.2 45.7447C1049.17 40.9196 1056.86 41.438 1058.23 50.5131H1058.44V40.7307Z" fill="white"/>
</mask>
<g mask="url(#mask0_75_250)">
<path d="M1058.44 40.7307C1058.44 28.79 1049.78 27.6215 1043.2 32.9317C1039.03 36.3081 1033.66 42.4433 1033.66 36.6129C1033.66 22.7929 1019.66 28.9055 1010.41 40.7555L1010.41 53.5571C1019.67 41.7156 1033.66 35.6085 1033.66 49.4254C1033.66 55.2558 1039.03 49.1206 1043.2 45.7447C1049.17 40.9196 1056.86 41.438 1058.23 50.5131H1058.44V40.7307Z" fill="url(#paint0_linear_75_250)"/>
</g>
<mask id="mask1_75_250" style="mask-type:luminance" maskUnits="userSpaceOnUse" x="1010" y="11" width="49" height="26">
<path d="M1058.44 23.9535C1058.44 12.0101 1049.78 10.8412 1043.2 16.1554C1039.03 19.5313 1033.66 25.6693 1033.66 19.8344C1033.66 6.01479 1019.67 12.1255 1010.41 23.967V36.1201C1019.87 24.9724 1033.66 18.834 1033.66 32.6468C1033.66 38.4804 1039.03 32.3434 1043.2 28.9683C1049.17 24.1423 1056.86 24.6644 1058.23 33.7323H1058.44V23.9535Z" fill="white"/>
</mask>
<g mask="url(#mask1_75_250)">
<path d="M1058.44 23.9535C1058.44 12.0101 1049.78 10.8412 1043.2 16.1554C1039.03 19.5313 1033.66 25.6693 1033.66 19.8344C1033.66 6.01479 1019.67 12.1255 1010.41 23.967V36.1201C1019.87 24.9724 1033.66 18.834 1033.66 32.6468C1033.66 38.4804 1039.03 32.3434 1043.2 28.9683C1049.17 24.1423 1056.86 24.6644 1058.23 33.7323H1058.44V23.9535Z" fill="url(#paint1_linear_75_250)"/>
</g>
</g>
<defs>
<linearGradient id="paint0_linear_75_250" x1="1009.78" y1="41.6045" x2="1058.38" y2="39.0236" gradientUnits="userSpaceOnUse">
<stop stop-color="#BA0F32"/>
<stop offset="0.2" stop-color="#ED1443"/>
<stop offset="0.49" stop-color="#F46B75"/>
<stop offset="0.66" stop-color="#BA0F32"/>
<stop offset="0.85" stop-color="#F46B75"/>
<stop offset="1" stop-color="#BA0F32"/>
</linearGradient>
<linearGradient id="paint1_linear_75_250" x1="1009.8" y1="24.6015" x2="1058.37" y2="22.0225" gradientUnits="userSpaceOnUse">
<stop stop-color="#BA0F32"/>
<stop offset="0.2" stop-color="#ED1443"/>
<stop offset="0.49" stop-color="#F46B75"/>
<stop offset="0.66" stop-color="#BA0F32"/>
<stop offset="0.85" stop-color="#F46B75"/>
<stop offset="1" stop-color="#BA0F32"/>
</linearGradient>
<clipPath id="clip0_75_250">
<rect width="95.4074" height="80" fill="white"/>
</clipPath>
<clipPath id="clip1_75_250">
<rect width="436" height="44" fill="white" transform="translate(228.407 18)"/>
</clipPath>
<clipPath id="clip2_75_250">
<rect width="303.041" height="66.6104" fill="white" transform="translate(1010.41 6.69482)"/>
</clipPath>
</defs>
</svg>
