<svg width="100" height="80" viewBox="0 0 100 80" fill="none" xmlns="http://www.w3.org/2000/svg">
<path d="M48.6779 70V7.2C48.6779 7.2 40.0763 0 27.8779 0C15.6795 0 7.07786 6.4 7.07786 6.4V70C7.07786 70 15.6795 63.7984 27.8779 63.7984C40.0763 63.7984 48.6779 70 48.6779 70ZM93.4779 70V7.2C93.4779 7.2 84.8763 0 72.6779 0C60.4795 0 51.8779 6.4 51.8779 6.4V70C51.8779 70 60.4795 63.7984 72.6779 63.7984C84.8763 63.7984 93.4779 70 93.4779 70ZM99.8779 12.8H96.6779V73.6H58.2779V76.8H42.2779V73.6H3.87786V12.8H0.677856V76.8H39.0779V80H61.6763L61.4779 76.8H99.8779V12.8Z" fill="#FFC300"/>
</svg>
