<svg width="152" height="80" viewBox="0 0 152 80" fill="none" xmlns="http://www.w3.org/2000/svg">
<path d="M92.1587 2.8888C91.8739 1.22052 90.4283 0 88.7346 0H10.6409C8.39036 0 6.568 1.82442 6.568 4.07087C6.568 6.32146 8.39036 8.14382 10.6409 8.14382H29.6461C31.8967 8.14382 33.7191 9.96854 33.7191 12.2171C33.7191 14.4656 31.8967 16.29 29.6461 16.29H4.23579C1.98727 16.29 0.162842 18.1144 0.162842 20.3629C0.162842 22.6115 1.98727 24.4335 4.23579 24.4335H38.8712C40.8586 24.4335 42.471 26.0483 42.471 28.0357C42.471 30.023 40.8586 31.6354 38.8712 31.6354H20.4699C18.2193 31.6354 16.397 33.4601 16.397 35.7087C16.397 37.9569 18.2193 39.7816 20.4699 39.7816H34.0317C36.0208 39.7816 37.6335 41.394 37.6335 43.3813C37.6335 45.3684 36.0208 46.9811 34.0317 46.9811H15.3092C13.0586 46.9811 11.2363 48.8055 11.2363 51.0541C11.2363 53.3026 13.0586 55.127 15.3092 55.127H41.0428L42.6658 64.3074H51.9876C51.4393 65.6394 51.1267 67.0936 51.1267 68.6246C51.1267 74.9076 56.2188 80 62.5021 80C68.7827 80 73.8751 74.9076 73.8751 68.6246C73.8751 67.0936 73.5625 65.6394 73.0142 64.3074H102.6L92.1587 2.8888ZM67.3972 68.6243C67.3972 71.3292 65.2066 73.5197 62.5018 73.5197C59.7952 73.5197 57.6043 71.3292 57.6043 68.6243C57.6043 66.7422 58.677 65.1275 60.234 64.3071H64.7675C66.3242 65.1275 67.3972 66.7419 67.3972 68.6243Z" fill="#FFC300"/>
<path d="M151.463 57.1745L146.791 34.1242L129.73 7.87451H98.6665L108.288 64.3075H119.651C119.105 65.6395 118.792 67.0937 118.792 68.6247C118.792 74.9078 123.884 80.0001 130.165 80.0001C136.448 80.0001 141.54 74.9078 141.54 68.6247C141.54 67.0937 141.227 65.6395 140.679 64.3075H145.63C147.416 64.3075 149.108 63.5066 150.239 62.1232C151.367 60.7423 151.819 58.9241 151.463 57.1745ZM116.25 18.3763H124.032L134.135 33.9166H118.901L116.25 18.3763ZM135.062 68.6247C135.062 71.3296 132.872 73.5201 130.165 73.5201C127.462 73.5201 125.27 71.3296 125.27 68.6247C125.27 66.7426 126.345 65.1279 127.899 64.3075H132.433C133.99 65.1279 135.062 66.7423 135.062 68.6247Z" fill="#FFC300"/>
</svg>
