<svg width="69" height="80" viewBox="0 0 69 80" fill="none" xmlns="http://www.w3.org/2000/svg">
<path d="M42.8571 62.8571C41.1429 62.8571 40 64 40 65.7143V71.4286C40 73.1429 38.8571 74.2857 37.1429 74.2857H8.57143C6.85714 74.2857 5.71429 73.1429 5.71429 71.4286V8.57143C5.71429 6.85714 6.85714 5.71429 8.57143 5.71429H11.4286V6.57143C11.4286 10.8571 14.8571 14.2857 19.1429 14.2857H26.5714C30.8571 14.2857 34.2857 10.8571 34.2857 6.57143V5.71429H37.1429C38.8571 5.71429 40 6.85714 40 8.57143V14.2857C40 16 41.1429 17.1429 42.8571 17.1429C44.5714 17.1429 45.7143 16 45.7143 14.2857V8.57143C45.7143 3.71429 42 0 37.1429 0H8.57143C3.71429 0 0 3.71429 0 8.57143V71.4286C0 76.2857 3.71429 80 8.57143 80H37.1429C42 80 45.7143 76.2857 45.7143 71.4286V65.7143C45.7143 64 44.5714 62.8571 42.8571 62.8571Z" fill="#FFC300"/>
<path d="M65.7144 26C61.7144 22 54.8572 22 51.1429 26L48.5715 28.2857L46.2858 26C42.2858 22 35.4286 22 31.7144 26C27.7144 30 27.7144 36.8571 31.7144 40.8571L46.5715 56.2857C47.1429 56.8571 47.7144 57.1429 48.5715 57.1429C49.4286 57.1429 50.0001 56.8571 50.5715 56.2857L65.4286 40.8571C69.4286 36.8571 69.4286 30 65.7144 26Z" fill="#FFC300"/>
<path d="M11.4286 65.7146C11.4286 67.4289 12.5714 68.5717 14.2857 68.5717H31.4286C33.1429 68.5717 34.2857 67.4289 34.2857 65.7146C34.2857 64.0003 33.1429 62.8574 31.4286 62.8574H14.2857C12.5714 62.8574 11.4286 64.0003 11.4286 65.7146Z" fill="#FFC300"/>
</svg>
